<?xml version="1.0" encoding="UTF-8" standalone="no"?>
<!-- Created with Inkscape (http://www.inkscape.org/) -->

<svg
   width="1138"
   height="643"
   viewBox="0 0 1138 642.99999"
   id="svg4491"
   version="1.1"
   inkscape:version="1.4.2 (f4327f4, 2025-05-13)"
   sodipodi:docname="table_2.svg"
   xmlns:inkscape="http://www.inkscape.org/namespaces/inkscape"
   xmlns:sodipodi="http://sodipodi.sourceforge.net/DTD/sodipodi-0.dtd"
   xmlns:xlink="http://www.w3.org/1999/xlink"
   xmlns="http://www.w3.org/2000/svg"
   xmlns:svg="http://www.w3.org/2000/svg"
   xmlns:rdf="http://www.w3.org/1999/02/22-rdf-syntax-ns#"
   xmlns:cc="http://creativecommons.org/ns#"
   xmlns:dc="http://purl.org/dc/elements/1.1/">
  <defs
     id="defs4493">
    <linearGradient
       id="linearGradient70"
       inkscape:collect="always">
      <stop
         style="stop-color:#2d7300;stop-opacity:1;"
         offset="0.1577287"
         id="stop70" />
      <stop
         style="stop-color:#2a6100;stop-opacity:0.97687858;"
         offset="0.68296528"
         id="stop72" />
    </linearGradient>
    <inkscape:path-effect
       effect="fillet_chamfer"
       id="path-effect70"
       is_visible="true"
       lpeversion="1"
       nodesatellites_param="F,0,0,1,0,39.862431,0,1 @ F,0,0,1,0,0,0,1 @ F,0,0,1,0,0,0,1 @ F,0,0,1,0,0,0,1 @ F,0,0,1,0,0,0,1 @ F,0,0,1,0,0,0,1 @ F,0,0,1,0,0,0,1 @ F,0,0,1,0,0,0,1 @ F,0,0,1,0,56.367694,0,1 @ F,0,0,1,0,0,0,1 @ F,0,0,1,0,0,0,1 @ F,0,0,1,0,0,0,1 @ F,0,0,1,0,0,0,1 @ F,0,0,1,0,0,0,1 @ F,0,0,1,0,67.858394,0,1 @ F,0,0,1,0,0,0,1 @ F,0,0,1,0,0,0,1 @ F,0,0,1,0,0,0,1 @ F,0,0,1,0,0,0,1 @ F,0,0,1,0,0,0,1 @ F,0,0,1,0,0,0,1 @ F,0,0,1,0,41.070681,0,1 @ F,0,0,1,0,46.469627,0,1 @ F,0,0,1,0,56.367694,0,1 @ F,0,0,1,0,0,0,1 @ F,0,0,1,0,0,0,1 @ F,0,0,1,0,0,0,1 @ F,0,0,1,0,0,0,1"
       radius="0"
       unit="px"
       method="auto"
       mode="F"
       chamfer_steps="1"
       flexible="false"
       use_knot_distance="true"
       apply_no_radius="true"
       apply_with_radius="true"
       only_selected="false"
       hide_knots="false" />
    <linearGradient
       inkscape:collect="always"
       id="linearGradient4217">
      <stop
         style="stop-color:#b3b3b3;stop-opacity:1;"
         offset="0"
         id="stop4219" />
      <stop
         style="stop-color:#b3b3b3;stop-opacity:0;"
         offset="1"
         id="stop4221" />
    </linearGradient>
    <linearGradient
       inkscape:collect="always"
       id="linearGradient4203">
      <stop
         style="stop-color:#b15454;stop-opacity:1;"
         offset="0"
         id="stop4205" />
      <stop
         style="stop-color:#b15454;stop-opacity:0;"
         offset="1"
         id="stop4207" />
    </linearGradient>
    <linearGradient
       inkscape:collect="always"
       id="linearGradient4582">
      <stop
         style="stop-color:#999999;stop-opacity:1;"
         offset="0"
         id="stop4584" />
      <stop
         style="stop-color:#999999;stop-opacity:0;"
         offset="1"
         id="stop4586" />
    </linearGradient>
    <linearGradient
       inkscape:collect="always"
       id="linearGradient4566">
      <stop
         style="stop-color:#838383;stop-opacity:1;"
         offset="0"
         id="stop4568" />
      <stop
         style="stop-color:#838383;stop-opacity:0;"
         offset="1"
         id="stop4570" />
    </linearGradient>
    <linearGradient
       inkscape:collect="always"
       id="linearGradient4517">
      <stop
         style="stop-color:#30ac30;stop-opacity:1;"
         offset="0"
         id="stop4519" />
      <stop
         style="stop-color:#30ac30;stop-opacity:0;"
         offset="1"
         id="stop4521" />
    </linearGradient>
    <radialGradient
       inkscape:collect="always"
       xlink:href="#linearGradient4517"
       id="radialGradient4523"
       cx="77.85714"
       cy="821.31805"
       fx="77.85714"
       fy="821.31805"
       r="302"
       gradientTransform="matrix(3.5492821,0,1.5108534e-5,2.0644134,-1266.3039,-2170.8008)"
       gradientUnits="userSpaceOnUse" />
    <filter
       inkscape:collect="always"
       style="color-interpolation-filters:sRGB"
       id="filter4554"
       x="-0.046222224"
       width="1.0924444"
       y="-0.046222224"
       height="1.0924444">
      <feGaussianBlur
         inkscape:collect="always"
         stdDeviation="0.36"
         id="feGaussianBlur4556" />
    </filter>
    <linearGradient
       inkscape:collect="always"
       xlink:href="#linearGradient4566"
       id="linearGradient4572"
       x1="-273.44238"
       y1="997.68073"
       x2="-230.6636"
       y2="972.42688"
       gradientUnits="userSpaceOnUse" />
    <radialGradient
       inkscape:collect="always"
       xlink:href="#linearGradient4582"
       id="radialGradient4588"
       cx="-244.47685"
       cy="983.03351"
       fx="-244.47685"
       fy="983.03351"
       r="18"
       gradientUnits="userSpaceOnUse"
       gradientTransform="matrix(1.292124,0.17699281,-0.1478241,1.0791798,216.7336,-34.565781)" />
    <linearGradient
       inkscape:collect="always"
       xlink:href="#linearGradient4566"
       id="linearGradient4600"
       gradientUnits="userSpaceOnUse"
       x1="-273.44238"
       y1="997.68073"
       x2="-230.6636"
       y2="972.42688" />
    <radialGradient
       inkscape:collect="always"
       xlink:href="#linearGradient4582"
       id="radialGradient4602"
       gradientUnits="userSpaceOnUse"
       gradientTransform="matrix(1.292124,0.17699281,-0.1478241,1.0791798,216.7336,-34.565781)"
       cx="-244.47685"
       cy="983.03351"
       fx="-244.47685"
       fy="983.03351"
       r="18" />
    <linearGradient
       inkscape:collect="always"
       xlink:href="#linearGradient4566"
       id="linearGradient4610"
       gradientUnits="userSpaceOnUse"
       x1="-273.44238"
       y1="997.68073"
       x2="-230.6636"
       y2="972.42688" />
    <radialGradient
       inkscape:collect="always"
       xlink:href="#linearGradient4582"
       id="radialGradient4612"
       gradientUnits="userSpaceOnUse"
       gradientTransform="matrix(1.292124,0.17699281,-0.1478241,1.0791798,216.7336,-34.565781)"
       cx="-244.47685"
       cy="983.03351"
       fx="-244.47685"
       fy="983.03351"
       r="18" />
    <linearGradient
       inkscape:collect="always"
       xlink:href="#linearGradient4566"
       id="linearGradient4620"
       gradientUnits="userSpaceOnUse"
       x1="-273.44238"
       y1="997.68073"
       x2="-230.6636"
       y2="972.42688" />
    <radialGradient
       inkscape:collect="always"
       xlink:href="#linearGradient4582"
       id="radialGradient4622"
       gradientUnits="userSpaceOnUse"
       gradientTransform="matrix(1.292124,0.17699281,-0.1478241,1.0791798,216.7336,-34.565781)"
       cx="-244.47685"
       cy="983.03351"
       fx="-244.47685"
       fy="983.03351"
       r="18" />
    <filter
       inkscape:collect="always"
       style="color-interpolation-filters:sRGB"
       id="filter4199"
       x="-0.039624999"
       width="1.07925"
       y="-0.039624999"
       height="1.07925">
      <feGaussianBlur
         inkscape:collect="always"
         stdDeviation="0.32"
         id="feGaussianBlur4201" />
    </filter>
    <linearGradient
       inkscape:collect="always"
       xlink:href="#linearGradient4203"
       id="linearGradient4209"
       x1="72.16394"
       y1="1013.9299"
       x2="72.16394"
       y2="968.47308"
       gradientUnits="userSpaceOnUse" />
    <radialGradient
       inkscape:collect="always"
       xlink:href="#linearGradient4217"
       id="radialGradient4223"
       cx="70.548241"
       cy="997.26245"
       fx="70.548241"
       fy="997.26245"
       r="16"
       gradientUnits="userSpaceOnUse"
       gradientTransform="matrix(1.0068164,-1.0068166,0.92639326,0.92639306,-924.3381,144.43458)" />
    <linearGradient
       inkscape:collect="always"
       xlink:href="#linearGradient4203"
       id="linearGradient4243"
       gradientUnits="userSpaceOnUse"
       x1="72.16394"
       y1="1013.9299"
       x2="72.16394"
       y2="968.47308" />
    <radialGradient
       inkscape:collect="always"
       xlink:href="#linearGradient4217"
       id="radialGradient4245"
       gradientUnits="userSpaceOnUse"
       gradientTransform="matrix(1.0068164,-1.0068166,0.92639326,0.92639306,-924.3381,144.43458)"
       cx="70.548241"
       cy="997.26245"
       fx="70.548241"
       fy="997.26245"
       r="16" />
    <filter
       inkscape:menu-tooltip="Bright metallic effect for any color"
       inkscape:menu="Bevels"
       inkscape:label="Bright Metal"
       style="color-interpolation-filters:sRGB"
       id="filter5245"
       x="-0.05501787"
       y="-0.062714115"
       width="1.1100357"
       height="1.1254282">
      <feGaussianBlur
         result="result6"
         stdDeviation="8"
         in="SourceGraphic"
         id="feGaussianBlur5247" />
      <feComposite
         in2="SourceGraphic"
         in="result6"
         operator="xor"
         result="result10"
         id="feComposite5249" />
      <feGaussianBlur
         result="result2"
         stdDeviation="8"
         id="feGaussianBlur5251" />
      <feComposite
         in2="SourceGraphic"
         operator="atop"
         in="result10"
         result="result91"
         id="feComposite5253" />
      <feComposite
         result="result4"
         in="result2"
         operator="xor"
         in2="result91"
         id="feComposite5255" />
      <feGaussianBlur
         in="result4"
         result="result3"
         stdDeviation="4"
         id="feGaussianBlur5257" />
      <feSpecularLighting
         result="result5"
         specularExponent="5"
         specularConstant="1.10000002"
         surfaceScale="18"
         id="feSpecularLighting5259">
        <feDistantLight
           azimuth="235"
           elevation="55"
           id="feDistantLight5261" />
      </feSpecularLighting>
      <feComposite
         k4="0"
         in="result3"
         k3="1.1"
         k2="0.5"
         operator="arithmetic"
         result="result7"
         in2="result5"
         k1="0.5"
         id="feComposite5263" />
      <feComposite
         in="result7"
         operator="atop"
         in2="SourceGraphic"
         result="result8"
         id="feComposite5265" />
    </filter>
    <linearGradient
       inkscape:collect="always"
       xlink:href="#linearGradient4566"
       id="linearGradient2"
       gradientUnits="userSpaceOnUse"
       x1="-273.44238"
       y1="997.68073"
       x2="-230.6636"
       y2="972.42688" />
    <radialGradient
       inkscape:collect="always"
       xlink:href="#linearGradient4582"
       id="radialGradient2"
       gradientUnits="userSpaceOnUse"
       gradientTransform="matrix(1.292124,0.17699281,-0.1478241,1.0791798,216.7336,-34.565781)"
       cx="-244.47685"
       cy="983.03351"
       fx="-244.47685"
       fy="983.03351"
       r="18" />
    <radialGradient
       inkscape:collect="always"
       xlink:href="#linearGradient70"
       id="radialGradient71"
       cx="1020.8327"
       cy="510.03757"
       fx="1020.8327"
       fy="510.03757"
       r="900.70822"
       gradientTransform="matrix(1,0,0,0.53210875,0,238.64212)"
       gradientUnits="userSpaceOnUse" />
  </defs>
  <sodipodi:namedview
     id="base"
     pagecolor="#ffffff"
     bordercolor="#666666"
     borderopacity="1.0"
     inkscape:pageopacity="0.0"
     inkscape:pageshadow="2"
     inkscape:zoom="0.5"
     inkscape:cx="435"
     inkscape:cy="321"
     inkscape:document-units="px"
     inkscape:current-layer="g1"
     showgrid="false"
     showborder="true"
     showguides="true"
     inkscape:guide-bbox="true"
     inkscape:snap-bbox="true"
     inkscape:snap-others="false"
     inkscape:object-paths="false"
     inkscape:snap-nodes="true"
     inkscape:showpageshadow="false"
     units="px"
     inkscape:snap-page="true"
     inkscape:snap-global="false"
     inkscape:bbox-paths="true"
     inkscape:bbox-nodes="true"
     inkscape:snap-bbox-edge-midpoints="true"
     inkscape:snap-bbox-midpoints="true"
     inkscape:snap-intersection-paths="true"
     inkscape:object-nodes="true"
     inkscape:snap-smooth-nodes="true"
     inkscape:snap-midpoints="true"
     inkscape:pagecheckerboard="0"
     inkscape:deskcolor="#d1d1d1"
     inkscape:window-width="2034"
     inkscape:window-height="1093"
     inkscape:window-x="405"
     inkscape:window-y="3"
     inkscape:window-maximized="0" />
  <metadata
     id="metadata4496">
    <rdf:RDF>
      <cc:Work
         rdf:about="">
        <dc:format>image/svg+xml</dc:format>
        <dc:type
           rdf:resource="http://purl.org/dc/dcmitype/StillImage" />
      </cc:Work>
    </rdf:RDF>
  </metadata>
  <g
     id="g1"
     transform="matrix(0.55566405,0,0,0.55603673,3.3915042e-5,0.00470979)">
    <g
       inkscape:groupmode="layer"
       id="layer19"
       inkscape:label="table"
       transform="translate(0,104.0279)"
       style="display:inline;opacity:1">
      <rect
         style="display:inline;opacity:1;fill:#565252;fill-opacity:1;fill-rule:nonzero;stroke:#333333;stroke-width:3.073;stroke-linecap:round;stroke-linejoin:round;stroke-miterlimit:4;stroke-dasharray:none;stroke-dashoffset:0;stroke-opacity:1"
         id="rect4499"
         width="2044.9268"
         height="1153.3241"
         x="-2046.4635"
         y="-1050.8256"
         ry="58.435108"
         inkscape:export-xdpi="91.900002"
         inkscape:export-ydpi="91.900002"
         transform="scale(-1)" />
      <rect
         style="display:inline;opacity:1;fill:#007430;fill-opacity:1;fill-rule:nonzero;stroke:none;stroke-width:1;stroke-linecap:round;stroke-linejoin:round;stroke-miterlimit:4;stroke-dasharray:none;stroke-dashoffset:0;stroke-opacity:1"
         id="rect4513"
         width="1857.3451"
         height="965.7149"
         x="-1952.6722"
         y="-957.0199"
         inkscape:export-xdpi="91.900002"
         inkscape:export-ydpi="91.900002"
         transform="scale(-1)" />
      <rect
         style="display:inline;opacity:0.3;fill:#ffffff;fill-opacity:1;fill-rule:nonzero;stroke:none;stroke-width:1;stroke-linecap:round;stroke-linejoin:round;stroke-miterlimit:4;stroke-dasharray:none;stroke-dashoffset:0;stroke-opacity:1"
         id="rect4525"
         width="4.6126113"
         height="965.7149"
         x="-1519.193"
         y="-957.0199"
         inkscape:export-xdpi="91.900002"
         inkscape:export-ydpi="91.900002"
         transform="scale(-1)" />
      <rect
         style="display:inline;opacity:1;fill:#a05a2c;fill-opacity:1;fill-rule:nonzero;stroke:none;stroke-width:1;stroke-linecap:round;stroke-linejoin:round;stroke-miterlimit:4;stroke-dasharray:none;stroke-dashoffset:0;stroke-opacity:1"
         id="rect4501"
         width="1722.0416"
         height="95.34127"
         x="-1883.4832"
         y="8.6950998"
         inkscape:export-xdpi="91.900002"
         inkscape:export-ydpi="91.900002"
         transform="scale(-1)" />
      <rect
         y="-1052.361"
         x="-1883.4832"
         height="95.34127"
         width="1722.0416"
         id="rect4503"
         style="display:inline;opacity:1;fill:#a05a2c;fill-opacity:1;fill-rule:nonzero;stroke:none;stroke-width:1;stroke-linecap:round;stroke-linejoin:round;stroke-miterlimit:4;stroke-dasharray:none;stroke-dashoffset:0;stroke-opacity:1"
         inkscape:export-xdpi="91.900002"
         inkscape:export-ydpi="91.900002"
         transform="scale(-1)" />
      <path
         id="rect4515"
         style="display:inline;opacity:1;fill:url(#radialGradient4523);stroke-linecap:round;stroke-linejoin:round"
         transform="scale(-1)"
         d="M -1952.6722,-957.0199 H -95.327148 V 8.6950073 H -1952.6722 Z" />
      <path
         d="M 95.328588,-8.694338 V 957.02002 H 1952.6713 V -8.694338 Z"
         style="display:inline;opacity:1;fill:url(#radialGradient4523);stroke-linecap:round;stroke-linejoin:round"
         id="path68" />
      <rect
         style="display:inline;opacity:1;fill:#a05a2c;fill-opacity:1;fill-rule:nonzero;stroke:none;stroke-width:1.00066;stroke-linecap:round;stroke-linejoin:round;stroke-miterlimit:4;stroke-dasharray:none;stroke-dashoffset:0;stroke-opacity:1"
         id="rect4505"
         width="95.327309"
         height="831.49347"
         x="-2047.9996"
         y="-889.22571"
         inkscape:export-xdpi="91.900002"
         inkscape:export-ydpi="91.900002"
         transform="scale(-1)" />
      <rect
         y="-889.35828"
         x="-95.327248"
         height="830.39178"
         width="95.327309"
         id="rect4507"
         style="display:inline;opacity:1;fill:#a05a2c;fill-opacity:1;fill-rule:nonzero;stroke:none;stroke-width:1;stroke-linecap:round;stroke-linejoin:round;stroke-miterlimit:4;stroke-dasharray:none;stroke-dashoffset:0;stroke-opacity:1"
         inkscape:export-xdpi="91.900002"
         inkscape:export-ydpi="91.900002"
         transform="scale(-1)" />
      <path
         style="display:inline;opacity:1;fill:#5aa02c;fill-opacity:1;fill-rule:nonzero;stroke:none;stroke-width:1;stroke-linecap:round;stroke-linejoin:round;stroke-miterlimit:4;stroke-dasharray:none;stroke-dashoffset:0;stroke-opacity:1"
         d="M 1952.6724,889.35816 1915.7715,850.718 V 96.037473 l 36.9009,-37.071078 z"
         id="rect4527"
         inkscape:connector-curvature="0"
         sodipodi:nodetypes="ccccc"
         inkscape:export-xdpi="91.900002"
         inkscape:export-ydpi="91.900002" />
      <path
         sodipodi:nodetypes="ccccc"
         inkscape:connector-curvature="0"
         id="path4534"
         d="M 95.327202,889.35816 132.22809,850.718 V 96.037473 L 95.327202,58.966395 Z"
         style="display:inline;opacity:1;fill:#5aa02c;fill-opacity:1;fill-rule:nonzero;stroke:none;stroke-width:1;stroke-linecap:round;stroke-linejoin:round;stroke-miterlimit:4;stroke-dasharray:none;stroke-dashoffset:0;stroke-opacity:1"
         inkscape:export-xdpi="91.900002"
         inkscape:export-ydpi="91.900002" />
      <path
         sodipodi:nodetypes="ccccc"
         inkscape:connector-curvature="0"
         id="path4536"
         d="M 1883.4834,-8.5225323 1845.2099,28.038569 H 1076.5362 L 1060.9788,-8.5225323 Z"
         style="display:inline;opacity:1;fill:#5aa02c;fill-opacity:1;fill-rule:nonzero;stroke:none;stroke-width:1;stroke-linecap:round;stroke-linejoin:round;stroke-miterlimit:4;stroke-dasharray:none;stroke-dashoffset:0;stroke-opacity:1"
         inkscape:export-xdpi="91.900002"
         inkscape:export-ydpi="91.900002" />
      <path
         style="display:inline;opacity:1;fill:#5aa02c;fill-opacity:1;fill-rule:nonzero;stroke:none;stroke-width:1;stroke-linecap:round;stroke-linejoin:round;stroke-miterlimit:4;stroke-dasharray:none;stroke-dashoffset:0;stroke-opacity:1"
         d="M 150.04317,-8.3154374 187.8827,27.83144 h 759.96492 l 15.38101,-36.1468774 z"
         id="path4542"
         inkscape:connector-curvature="0"
         sodipodi:nodetypes="ccccc"
         inkscape:export-xdpi="91.900002"
         inkscape:export-ydpi="91.900002" />
      <path
         style="display:inline;opacity:1;fill:#5aa02c;fill-opacity:1;fill-rule:nonzero;stroke:none;stroke-width:1;stroke-linecap:round;stroke-linejoin:round;stroke-miterlimit:4;stroke-dasharray:none;stroke-dashoffset:0;stroke-opacity:1"
         d="m 1883.4834,957.01965 -38.2735,-36.56104 h -768.6737 l -15.5574,36.56104 z"
         id="path4544"
         inkscape:connector-curvature="0"
         sodipodi:nodetypes="ccccc"
         inkscape:export-xdpi="91.900002"
         inkscape:export-ydpi="91.900002" />
      <g
         id="g4590"
         transform="matrix(-3.0750744,0,0,-3.075525,1229.3708,3002.2591)"
         inkscape:export-xdpi="91.900002"
         inkscape:export-ydpi="91.900002"
         style="display:inline;opacity:1">
        <circle
           r="18"
           cy="974.95227"
           cx="-230.33472"
           id="path4509"
           style="opacity:1;fill:#000000;fill-opacity:1;fill-rule:nonzero;stroke:url(#linearGradient4572);stroke-width:1.6;stroke-linecap:round;stroke-linejoin:round;stroke-miterlimit:4;stroke-dasharray:none;stroke-dashoffset:0;stroke-opacity:1;filter:url(#filter4554)" />
        <circle
           style="opacity:0.4;fill:url(#radialGradient4588);fill-opacity:1;fill-rule:nonzero;stroke:none;stroke-width:1.6;stroke-linecap:round;stroke-linejoin:round;stroke-miterlimit:4;stroke-dasharray:none;stroke-dashoffset:0;stroke-opacity:1"
           id="circle4576"
           cx="-230.33472"
           cy="974.95227"
           r="18" />
      </g>
      <g
         id="g4594"
         transform="matrix(0,-3.075525,3.0750744,0,-1060.3836,239.50853)"
         inkscape:export-xdpi="91.900002"
         inkscape:export-ydpi="91.900002"
         style="display:inline;opacity:1">
        <circle
           style="opacity:1;fill:#000000;fill-opacity:1;fill-rule:nonzero;stroke:url(#linearGradient4600);stroke-width:1.6;stroke-linecap:round;stroke-linejoin:round;stroke-miterlimit:4;stroke-dasharray:none;stroke-dashoffset:0;stroke-opacity:1;filter:url(#filter4554)"
           id="circle4596"
           cx="-230.33472"
           cy="974.95227"
           r="18" />
        <circle
           r="18"
           cy="974.95227"
           cx="-230.33472"
           id="circle4598"
           style="opacity:0.4;fill:url(#radialGradient4602);fill-opacity:1;fill-rule:nonzero;stroke:none;stroke-width:1.6;stroke-linecap:round;stroke-linejoin:round;stroke-miterlimit:4;stroke-dasharray:none;stroke-dashoffset:0;stroke-opacity:1" />
      </g>
      <g
         transform="matrix(3.0750744,0,0,3.075525,803.74396,-2050.5813)"
         id="g4604"
         inkscape:export-xdpi="91.900002"
         inkscape:export-ydpi="91.900002"
         style="display:inline;opacity:1">
        <circle
           r="18"
           cy="974.95227"
           cx="-230.33472"
           id="circle4606"
           style="opacity:1;fill:#000000;fill-opacity:1;fill-rule:nonzero;stroke:url(#linearGradient4610);stroke-width:1.6;stroke-linecap:round;stroke-linejoin:round;stroke-miterlimit:4;stroke-dasharray:none;stroke-dashoffset:0;stroke-opacity:1;filter:url(#filter4554)" />
        <circle
           style="opacity:0.4;fill:url(#radialGradient4612);fill-opacity:1;fill-rule:nonzero;stroke:none;stroke-width:1.6;stroke-linecap:round;stroke-linejoin:round;stroke-miterlimit:4;stroke-dasharray:none;stroke-dashoffset:0;stroke-opacity:1"
           id="circle4608"
           cx="-230.33472"
           cy="974.95227"
           r="18" />
      </g>
      <circle
         style="display:inline;opacity:1;fill:#000000;fill-opacity:1;fill-rule:nonzero;stroke:url(#linearGradient2);stroke-width:1.6;stroke-linecap:round;stroke-linejoin:round;stroke-miterlimit:4;stroke-dasharray:none;stroke-dashoffset:0;stroke-opacity:1;filter:url(#filter4554)"
         id="circle4616"
         cx="-230.33472"
         cy="974.95227"
         r="18"
         transform="matrix(0,3.075525,-3.0750744,0,3093.4984,712.16933)" />
      <circle
         r="18"
         cy="974.95227"
         cx="-230.33472"
         id="circle4618"
         style="display:inline;opacity:0.4;fill:url(#radialGradient2);fill-opacity:1;fill-rule:nonzero;stroke:none;stroke-width:1.6;stroke-linecap:round;stroke-linejoin:round;stroke-miterlimit:4;stroke-dasharray:none;stroke-dashoffset:0;stroke-opacity:1"
         transform="matrix(0,3.075525,-3.0750744,0,3093.4984,712.16933)" />
      <g
         id="g4614"
         transform="matrix(0,3.075525,-3.0750744,0,3093.4984,712.16933)"
         inkscape:export-xdpi="91.900002"
         inkscape:export-ydpi="91.900002"
         style="display:inline;opacity:1">
        <circle
           style="opacity:1;fill:#000000;fill-opacity:1;fill-rule:nonzero;stroke:url(#linearGradient4620);stroke-width:1.6;stroke-linecap:round;stroke-linejoin:round;stroke-miterlimit:4;stroke-dasharray:none;stroke-dashoffset:0;stroke-opacity:1;filter:url(#filter4554)"
           id="circle1"
           cx="-230.33472"
           cy="974.95227"
           r="18" />
        <circle
           r="18"
           cy="974.95227"
           cx="-230.33472"
           id="circle2"
           style="opacity:0.4;fill:url(#radialGradient4622);fill-opacity:1;fill-rule:nonzero;stroke:none;stroke-width:1.6;stroke-linecap:round;stroke-linejoin:round;stroke-miterlimit:4;stroke-dasharray:none;stroke-dashoffset:0;stroke-opacity:1" />
      </g>
      <path
         sodipodi:nodetypes="ccccc"
         inkscape:connector-curvature="0"
         id="path4191"
         d="m 151.59634,956.74965 37.83951,-36.147 h 759.96491 l 15.38102,36.147 z"
         style="display:inline;opacity:1;fill:#5aa02c;fill-opacity:1;fill-rule:nonzero;stroke:none;stroke-width:1;stroke-linecap:round;stroke-linejoin:round;stroke-miterlimit:4;stroke-dasharray:none;stroke-dashoffset:0;stroke-opacity:1"
         inkscape:export-xdpi="91.900002"
         inkscape:export-ydpi="91.900002" />
      <g
         id="g4233"
         transform="matrix(-3.0750744,0,0,-3.075525,1229.3708,3002.2591)"
         inkscape:export-xdpi="91.900002"
         inkscape:export-ydpi="91.900002"
         style="display:inline;opacity:1">
        <circle
           style="opacity:1;fill:#000000;fill-opacity:1;fill-rule:nonzero;stroke:url(#linearGradient4209);stroke-width:1;stroke-linecap:round;stroke-linejoin:round;stroke-miterlimit:4;stroke-dasharray:none;stroke-dashoffset:0;stroke-opacity:1;filter:url(#filter4199)"
           id="circle4511"
           cx="70.548233"
           cy="983.1203"
           r="16" />
        <circle
           r="16"
           cy="983.1203"
           cx="70.548233"
           id="circle4211"
           style="opacity:0.3;fill:url(#radialGradient4223);fill-opacity:1;fill-rule:nonzero;stroke:none;stroke-width:1;stroke-linecap:round;stroke-linejoin:round;stroke-miterlimit:4;stroke-dasharray:none;stroke-dashoffset:0;stroke-opacity:1" />
      </g>
      <g
         id="g4237"
         transform="matrix(-3.0750744,0,0,3.075525,1229.3708,-2053.91)"
         inkscape:export-xdpi="91.900002"
         inkscape:export-ydpi="91.900002"
         style="display:inline;opacity:1">
        <circle
           r="16"
           cy="983.1203"
           cx="70.548233"
           id="circle4239"
           style="opacity:1;fill:#000000;fill-opacity:1;fill-rule:nonzero;stroke:url(#linearGradient4243);stroke-width:1;stroke-linecap:round;stroke-linejoin:round;stroke-miterlimit:4;stroke-dasharray:none;stroke-dashoffset:0;stroke-opacity:1;filter:url(#filter4199)" />
        <circle
           style="opacity:0.3;fill:url(#radialGradient4245);fill-opacity:1;fill-rule:nonzero;stroke:none;stroke-width:1;stroke-linecap:round;stroke-linejoin:round;stroke-miterlimit:4;stroke-dasharray:none;stroke-dashoffset:0;stroke-opacity:1"
           id="circle4241"
           cx="70.548233"
           cy="983.1203"
           r="16" />
      </g>
      <path
         id="rect68"
         style="fill:url(#radialGradient71);stroke-width:1.82423"
         d="m 164.57164,30.762844 h 72.43955 112.30198 224.60396 449.20797 449.2079 224.6039 112.302 55.9343 a 56.367694,56.367694 45 0 1 56.3677,56.367694 v 55.859022 112.22671 224.45343 224.45343 112.22672 44.36832 a 67.858394,67.858394 135 0 1 -67.8584,67.85839 H 1809.2389 1696.9369 1472.333 1023.1251 573.91713 349.31317 278.08187 171.17884 a 46.469627,46.469627 45 0 1 -46.46963,-46.46963 l 0,-9.38939 V 704.12313 479.6697 255.21627 142.98956 70.625275 a 39.862431,39.862431 135 0 1 39.86243,-39.862431 z"
         sodipodi:nodetypes="ccccccccccccccccccccccccccccc"
         inkscape:path-effect="#path-effect70"
         inkscape:original-d="m 124.70921,30.762844 h 112.30198 112.30198 224.60396 449.20797 449.2079 224.6039 112.302 112.302 V 142.98956 255.21627 479.6697 704.12313 816.34985 928.57656 H 1809.2389 1696.9369 1472.333 1023.1251 573.91713 349.31317 237.01119 124.70921 V 816.34985 704.12313 479.6697 255.21627 142.98956 Z"
         transform="matrix(1,0,0,1.0013267,0,-1.3125042)" />
      <path
         style="fill:#296201;fill-opacity:1;stroke-width:1.014;stroke-dasharray:none"
         d="M 533.28476,582.29106 C 529.87537,573.76173 529.47401,574.5 537.52037,574.5 h 7.23435 l -3.87736,4.31565 c -2.13255,2.3736 -4.32736,5.09208 -4.87736,6.04105 -0.84777,1.46276 -1.26111,1.07219 -2.71524,-2.56564 z"
         id="path72"
         transform="matrix(1.7996485,0,0,1.7984423,-6.1035156e-5,-104.03637)" />
      <path
         style="fill:#296201;fill-opacity:1;stroke-width:1.014;stroke-dasharray:none"
         d="m 588.22025,584.27416 c -0.92027,-1.80079 -2.86647,-4.73666 -4.32489,-6.52416 l -2.65168,-3.25 h 7.11357 7.11357 l -2.05443,5.21212 c -3.19731,8.11165 -3.32491,8.22368 -5.19614,4.56204 z"
         id="path73"
         transform="matrix(1.7996485,0,0,1.7984423,-6.1035156e-5,-104.03637)" />
      <path
         style="fill:#296201;fill-opacity:1;stroke-width:0.507;stroke-dasharray:none"
         d="m 1037.5,580.9422 -7,-6.67399 2,-0.0126 c 2.7611,-0.0174 9.5303,-1.69991 12.9835,-3.2271 2.4613,-1.08849 2.818,-1.14528 2.5051,-0.39885 -1.5435,3.68173 -2.8838,9.05938 -3.1599,12.67845 l -0.3287,4.3081 z"
         id="path74"
         transform="matrix(1.7996485,0,0,1.7984423,-6.1035156e-5,-104.03637)" />
      <path
         style="fill:#296201;fill-opacity:1;stroke-width:0.507;stroke-dasharray:none"
         d="m 1062.75,555.99622 c 0,-0.1537 0.5369,-1.34073 1.1931,-2.63784 1.9982,-3.95009 3.3786,-9.12112 3.7263,-13.95969 l 0.3306,-4.6013 8.25,8.70848 c 4.5375,4.78967 8.326,9.07075 8.4188,9.51352 0.1454,0.69298 -0.1678,0.7511 -2.25,0.41758 -5.7755,-0.92514 -14.2994,0.0621 -18.2716,2.11621 -0.7685,0.39737 -1.3972,0.59674 -1.3972,0.44304 z"
         id="path75"
         transform="matrix(1.7996485,0,0,1.7984423,-6.1035156e-5,-104.03637)" />
      <path
         style="fill:#296201;fill-opacity:1;stroke-width:0.507;stroke-dasharray:none"
         d="m 1067.75,104.11495 c 0,-3.42027 -1.4416,-9.31031 -3.0508,-12.464533 -0.5604,-1.098527 -0.9449,-2.071376 -0.8544,-2.161885 0.091,-0.09051 1.5125,0.319212 3.1599,0.910494 2.5051,0.899126 4.1195,1.077179 9.8646,1.088016 l 6.8693,0.01296 -7.8634,7.875 c -4.3249,4.331248 -7.9224,7.874998 -7.9943,7.874998 -0.072,0 -0.1309,-1.41077 -0.1309,-3.13505 z"
         id="path76"
         transform="matrix(1.7996485,0,0,1.7984423,-6.1035156e-5,-104.03637)" />
      <path
         style="fill:#296201;fill-opacity:1;stroke-width:0.507;stroke-dasharray:none"
         d="m 1046.25,75.560467 c -2.7353,-1.054795 -3.0802,-1.06184 -64.5,-1.317178 L 920,73.986577 972.75,73.8527 l 52.75,-0.133878 9.5,-9.212115 c 5.225,-5.066664 9.6169,-9.222149 9.7597,-9.234411 0.1429,-0.01226 0.1808,1.608954 0.084,3.602704 -0.2182,4.509912 0.8955,9.985536 2.904,14.277632 0.8357,1.785682 1.4592,3.296557 1.3857,3.357499 -0.074,0.06094 -1.3712,-0.366407 -2.8837,-0.949664 z"
         id="path77"
         transform="matrix(1.7996485,0,0,1.7984423,-6.1035156e-5,-104.03637)" />
      <path
         style="fill:#296201;fill-opacity:1;stroke-width:0.507;stroke-dasharray:none"
         d="m 569.6941,73.459659 c 8.24841,-2.218264 15.03076,-7.685283 18.88512,-15.222643 l 1.57922,-3.088224 0.95195,2.175604 c 0.52357,1.196582 2.28792,5.379147 3.92078,9.294588 L 598,73.737968 l 84,0.132479 84,0.132479 -99.5,0.09063 c -87.68532,0.07987 -99.1801,0.0046 -96.8059,-0.633899 z"
         id="path78"
         transform="matrix(1.7996485,0,0,1.7984423,-6.1035156e-5,-104.03637)" />
      <path
         style="fill:#296201;fill-opacity:1;stroke-width:0.507;stroke-dasharray:none"
         d="M 453.44311,73.752492 526.88622,73.5 l 3.85329,-9.12973 c 2.11931,-5.021352 4.03196,-9.296352 4.25034,-9.5 0.21838,-0.203649 0.29192,-0.03478 0.16343,0.375266 -0.1285,0.410045 0.0786,1.057806 0.4603,1.439469 0.38166,0.381664 0.5566,1.051815 0.38875,1.489224 -0.16785,0.43741 -0.14358,0.633693 0.0539,0.436185 0.19751,-0.197507 0.97504,0.719352 1.72785,2.037465 2.99936,5.251681 11.31324,11.303368 17.7159,12.895434 2.01754,0.501675 -14.67561,0.606206 -86.5,0.541657 l -89,-0.07999 z"
         id="path79"
         transform="matrix(1.7996485,0,0,1.7984423,-6.1035156e-5,-104.03637)" />
      <path
         style="fill:#296201;fill-opacity:1;stroke-width:0.507;stroke-dasharray:none"
         d="m 80.75,76.528022 c 0,-0.09116 0.68141,-1.621888 1.514245,-3.401614 1.922993,-4.109342 3.179071,-10.632322 2.847446,-14.787172 l -0.25228,-3.160763 1.288622,1.160763 c 0.708742,0.63842 5.125776,4.817014 9.815632,9.285764 l 8.527005,8.125 37.75467,0.117547 L 180,73.985093 132.75,74.242547 85.5,74.5 83.125,75.596885 c -1.30625,0.603287 -2.375,1.022298 -2.375,0.931137 z"
         id="path80"
         transform="matrix(1.7996485,0,0,1.7984423,-6.1035156e-5,-104.03637)" />
      <path
         style="fill:#296201;fill-opacity:1;stroke-width:0.507;stroke-dasharray:none"
         d="m 62.028136,99.280872 c -4.485238,-4.495564 -6.7144,-7.062165 -6.25,-7.196092 0.397025,-0.114496 2.184364,-0.481517 3.971864,-0.8156 2.597187,-0.485414 6.631779,-2.084904 11.116525,-4.407079 0.201588,-0.104381 -0.0054,0.783945 -0.460046,1.974058 -0.572919,1.499819 -0.915549,4.506623 -1.116524,9.798235 L 69,106.26879 Z"
         id="path81"
         transform="matrix(1.7996485,0,0,1.7984423,-6.1035156e-5,-104.03637)" />
      <path
         style="fill:#296201;fill-opacity:1;stroke-width:0.507;stroke-dasharray:none"
         d="m 84.642173,583.37918 c -0.201594,-4.95758 -0.766063,-7.49168 -2.617202,-11.74953 -0.329828,-0.75865 -0.03484,-0.71888 2.298317,0.30986 3.640284,1.60508 7.24457,2.31049 11.805427,2.31049 h 3.829493 l -2.229104,2.29175 c -1.226007,1.26046 -4.622899,4.52484 -7.548649,7.25418 l -5.319545,4.96243 z"
         id="path82"
         transform="matrix(1.7996485,0,0,1.7984423,-6.1035156e-5,-104.03637)" />
      <path
         style="fill:#296201;fill-opacity:1;stroke-width:0.507;stroke-dasharray:none"
         d="m 68.497024,556.96357 c -2.679315,-1.62213 -7.249668,-3.09215 -11.425175,-3.67482 -1.885483,-0.26311 -3.509644,-0.55988 -3.609247,-0.65948 -0.0996,-0.0996 3.355565,-3.89781 7.678151,-8.44046 L 69,535.92944 l 0.293929,9.28528 c 0.178425,5.63646 0.54499,9.93389 0.93281,10.93581 0.351385,0.90778 0.555277,1.73412 0.453095,1.83631 -0.102183,0.10218 -1.084448,-0.35829 -2.18281,-1.02327 z"
         id="path83"
         transform="matrix(1.7996485,0,0,1.7984423,-6.1035156e-5,-104.03637)" />
      <path
         style="fill:#296201;fill-opacity:1;stroke-width:0.0224064;stroke-dasharray:none"
         d="m 535.17349,587.64283 c -0.0306,-0.069 -1.01711,-2.38767 -2.19215,-5.15257 -1.17503,-2.7649 -2.3206,-5.45964 -2.5457,-5.98831 -0.45592,-1.07077 -0.97631,-2.29439 -0.99381,-2.33676 -0.009,-0.0221 1.62849,-0.0276 8.14479,-0.0276 5.15579,0 8.15619,0.008 8.15619,0.0211 0,0.0116 -0.0447,0.0408 -0.0992,0.065 -0.0723,0.032 -0.0957,0.0533 -0.086,0.0784 0.007,0.019 0.004,0.0345 -0.007,0.0345 -0.0321,0 -0.22557,0.13014 -0.35692,0.24012 -0.14465,0.12111 -0.23576,0.18802 -0.3232,0.23732 -0.0365,0.0206 -0.11584,0.0806 -0.1764,0.13352 -0.0606,0.0529 -0.12526,0.0961 -0.14379,0.0961 -0.0185,0 -0.0964,0.0547 -0.17304,0.12154 -0.0766,0.0668 -0.14621,0.12153 -0.15459,0.12153 -0.008,0 -0.12459,0.0944 -0.25824,0.20977 -0.13364,0.11537 -0.25057,0.20983 -0.25985,0.20992 -0.009,9e-5 0.22192,-0.26568 0.51376,-0.59059 0.29184,-0.32491 0.53062,-0.59714 0.53062,-0.60495 0,-0.0212 -10.805,-0.0372 -11.36895,-0.0168 -0.61335,0.0222 -0.92221,0.0516 -1.26944,0.121 -0.59898,0.11968 -0.92357,0.33203 -1.06674,0.69786 -0.0584,0.1491 -0.0783,0.55509 -0.0402,0.81801 0.0876,0.60392 0.40644,1.54628 1.12749,3.33213 1.7522,4.33975 1.77796,4.40136 2.13395,5.10443 0.55005,1.08632 0.90513,1.32193 1.32639,0.88011 0.15315,-0.16063 0.22254,-0.25554 0.38493,-0.52656 0.20272,-0.3383 0.4105,-0.6397 0.78454,-1.138 0.2861,-0.38115 0.84205,-1.09523 1.01501,-1.30373 l 0.055,-0.0663 8e-4,0.0555 c 4.3e-4,0.0305 -0.0241,0.0823 -0.0545,0.11505 -0.0304,0.0328 -0.0553,0.0699 -0.0553,0.0826 0,0.0127 -0.0106,0.0231 -0.0237,0.0231 -0.0417,0 -0.0868,0.0615 -0.0868,0.11837 0,0.0304 -0.0149,0.0702 -0.0331,0.0884 -0.0182,0.0182 -0.0331,0.0395 -0.0331,0.0474 0,0.0183 -0.0457,0.0599 -0.0989,0.0899 -0.023,0.013 -0.0524,0.0424 -0.0653,0.0654 -0.0345,0.0611 -0.0724,0.0989 -0.0993,0.0989 -0.013,0 -0.0237,0.0398 -0.0237,0.0884 0,0.0638 -0.009,0.0884 -0.0331,0.0884 -0.0182,0 -0.0331,0.0149 -0.0331,0.0331 0,0.0182 -0.01,0.0331 -0.0221,0.0331 -0.0122,0 -0.0221,0.0137 -0.0221,0.0304 0,0.0167 -0.0149,0.0428 -0.0331,0.058 -0.0182,0.0151 -0.0331,0.0512 -0.0331,0.08 0,0.0289 -0.01,0.0525 -0.0221,0.0525 -0.0121,0 -0.0221,0.01 -0.0221,0.0221 0,0.0122 0.0214,0.0221 0.0476,0.0221 h 0.0476 l -0.0476,0.0413 c -0.0262,0.0227 -0.0476,0.0667 -0.0476,0.0979 0,0.0311 -0.0149,0.0715 -0.0331,0.0897 -0.0182,0.0182 -0.0331,0.0438 -0.0331,0.0568 0,0.013 -0.0149,0.0237 -0.0331,0.0237 -0.0205,0 -0.0332,0.0208 -0.0332,0.0542 0,0.0742 -0.0449,0.16677 -0.0809,0.16677 -0.0163,0 -0.0296,0.0217 -0.0296,0.0481 0,0.0755 -0.0501,0.19492 -0.0818,0.19492 -0.0171,0 -0.0287,0.0265 -0.0287,0.0653 0,0.0402 -0.0213,0.0865 -0.0552,0.12053 -0.0304,0.0304 -0.0552,0.0793 -0.0552,0.10878 0,0.0294 -0.0149,0.0659 -0.0332,0.0811 -0.0182,0.0151 -0.0331,0.0412 -0.0331,0.058 0,0.0167 -0.01,0.0304 -0.0221,0.0304 -0.0122,0 -0.0221,0.0149 -0.0221,0.0331 0,0.0182 -0.0181,0.0331 -0.0403,0.0331 -0.0443,0 -0.13644,0.0868 -0.13644,0.12848 0,0.0144 -0.0149,0.0262 -0.0331,0.0262 -0.0212,0 -0.0331,0.0213 -0.0331,0.059 0,0.0325 -0.0133,0.0747 -0.0296,0.0939 -0.0163,0.0192 -0.0454,0.0921 -0.0646,0.16194 -0.0298,0.10834 -0.0304,0.12706 -0.004,0.12706 0.0362,0 0.0421,0.035 0.009,0.0552 -0.0122,0.008 -0.0221,0.0429 -0.0221,0.0786 0,0.043 -0.0112,0.065 -0.0331,0.065 -0.0204,0 -0.0331,0.0207 -0.0331,0.0542 0,0.0742 -0.0449,0.16677 -0.0809,0.16677 -0.0198,0 -0.0296,0.0293 -0.0296,0.0884 0,0.0638 -0.009,0.0884 -0.0331,0.0884 -0.0219,0 -0.0331,0.022 -0.0331,0.065 0,0.0357 -0.0105,0.0715 -0.0233,0.0794 -0.0128,0.008 -0.0191,0.0259 -0.0141,0.04 0.015,0.0419 -0.11931,0.39725 -0.15961,0.42216 -0.0104,0.006 -0.0256,0.0469 -0.0336,0.0898 -0.008,0.043 -0.034,0.0902 -0.0578,0.105 -0.0284,0.0177 -0.0431,0.0515 -0.0431,0.0989 0,0.0493 -0.0105,0.072 -0.0331,0.072 -0.0239,0 -0.0331,0.0245 -0.0331,0.0884 0,0.0486 -0.01,0.0884 -0.0221,0.0884 -0.0122,0 -0.0221,0.0236 -0.0221,0.0525 0,0.0289 -0.0149,0.0649 -0.0331,0.08 -0.0182,0.0151 -0.0331,0.0462 -0.0331,0.069 0,0.0228 -0.0149,0.0415 -0.0331,0.0415 -0.023,0 -0.0331,0.0231 -0.0331,0.075 0,0.12677 -0.0547,0.11426 -0.11739,-0.0268 z"
         id="path84"
         transform="matrix(1.7996485,0,0,1.7984423,-6.1035156e-5,-104.03637)" />
      <path
         style="fill:#296201;fill-opacity:1;stroke-width:0.0224064;stroke-dasharray:none"
         d="m 516.50836,567.19908 v -6.91639 h 27.12418 27.12417 v 6.91639 6.91639 h -27.12417 -27.12418 z"
         id="path85"
         transform="matrix(1.7996485,0,0,1.7984423,-6.1035156e-5,-104.03637)" />
      <path
         style="fill:#296201;fill-opacity:1;stroke-width:0.0224064;stroke-dasharray:none"
         d="m 590.37892,587.63888 c 0,-0.17383 -9.2e-4,-0.17677 -0.0552,-0.17677 -0.054,0 -0.0552,-0.004 -0.0552,-0.16573 0,-0.16205 -10e-4,-0.16573 -0.0553,-0.16573 -0.0522,0 -0.0552,-0.007 -0.0552,-0.12153 0,-0.12031 -6.7e-4,-0.12154 -0.0663,-0.12154 h -0.0663 l 8e-5,-0.14915 9e-5,-0.14916 0.10487,-0.0426 c 0.13217,-0.0537 0.37768,-0.29554 0.52877,-0.52086 0.55658,-0.83005 1.0823,-2.03485 2.89749,-6.64018 0.59596,-1.51202 1.90048,-4.81844 1.92018,-4.86688 0.009,-0.0221 -1.42378,-0.0276 -7.12011,-0.0276 h -7.13134 l 0.0757,0.0939 c 0.14634,0.18164 1.8406,2.2628 2.07325,2.54669 0.8003,0.97658 1.24956,1.55292 1.22761,1.57487 -0.024,0.024 -0.0893,-0.0292 -0.0967,-0.0787 -0.004,-0.0278 -0.0261,-0.0488 -0.0552,-0.053 -0.0366,-0.005 -0.05,-0.0243 -0.0553,-0.0787 -0.004,-0.0445 -0.019,-0.0718 -0.0387,-0.0718 -0.0175,0 -0.0318,-0.0149 -0.0318,-0.0331 0,-0.0182 -0.0124,-0.0333 -0.0276,-0.0335 -0.0152,-2.2e-4 -0.16186,-0.1344 -0.32593,-0.29818 -0.26799,-0.2675 -0.29214,-0.29778 -0.23755,-0.2979 0.0334,-7e-5 0.0608,-0.006 0.0608,-0.0128 0,-0.0217 -0.062,-0.0758 -0.0868,-0.0758 -0.013,0 -0.0237,-0.009 -0.0237,-0.0193 0,-0.0106 -0.0398,-0.0256 -0.0884,-0.0334 -0.0487,-0.008 -0.0884,-0.0266 -0.0884,-0.0419 0,-0.0358 -0.44507,-0.47996 -0.48099,-0.47996 -0.015,0 -0.0272,-0.0149 -0.0272,-0.0331 0,-0.0182 -0.0149,-0.0331 -0.0332,-0.0331 -0.0182,0 -0.0331,-0.0149 -0.0331,-0.0331 0,-0.0182 -0.0126,-0.0331 -0.0279,-0.0331 -0.0154,0 -0.15692,-0.12927 -0.31456,-0.28726 -0.15764,-0.158 -0.30295,-0.28726 -0.32291,-0.28726 -0.0199,0 -0.0487,-0.0149 -0.0638,-0.0331 -0.022,-0.0266 -0.0218,-0.0331 10e-4,-0.0331 0.0173,0 0.008,-0.0219 -0.0233,-0.0553 -0.0285,-0.0304 -0.0651,-0.0552 -0.0812,-0.0552 -0.0161,0 -0.0293,-0.01 -0.0293,-0.0221 0,-0.0122 -0.0118,-0.0221 -0.0263,-0.0221 -0.0144,0 -0.11867,-0.087 -0.23162,-0.19335 -0.36478,-0.34342 -0.4852,-0.44747 -0.51785,-0.44747 -0.0176,0 -0.10108,-0.0696 -0.18551,-0.15468 -0.0844,-0.0851 -0.16627,-0.15468 -0.1819,-0.15468 -0.0156,0 -0.0874,-0.0522 -0.1595,-0.11601 -0.16057,-0.14209 -0.23532,-0.19871 -0.32151,-0.24351 -0.0365,-0.019 -0.10056,-0.0701 -0.14244,-0.11368 -0.0419,-0.0436 -0.0891,-0.0792 -0.10496,-0.0792 -0.0159,0 -0.0288,-0.01 -0.0288,-0.0217 0,-0.0119 -0.0227,-0.0274 -0.0505,-0.0344 -0.0278,-0.007 -0.0601,-0.0342 -0.0718,-0.0606 -0.0137,-0.0309 -0.0527,-0.0551 -0.10968,-0.0681 -0.0898,-0.0205 -0.1765,-0.0703 -0.27621,-0.15843 -0.0304,-0.0269 -0.0826,-0.0553 -0.11601,-0.0632 -0.0334,-0.008 -0.0608,-0.0234 -0.0608,-0.0344 0,-0.0111 -0.0156,-0.0357 -0.0347,-0.0548 -0.0316,-0.0316 0.73191,-0.0347 8.3982,-0.0347 4.63811,0 8.42846,0.007 8.42301,0.0166 -0.005,0.009 -0.33521,0.78223 -0.73279,1.71805 -1.04389,2.45705 -2.49719,5.87555 -3.42415,8.05438 -0.2094,0.49222 -0.66717,1.56862 -1.01726,2.39201 -0.51606,1.21376 -0.64427,1.49708 -0.67747,1.49708 -0.0364,0 -0.0409,-0.0194 -0.0409,-0.17678 z"
         id="path86"
         transform="matrix(1.7996485,0,0,1.7984423,-6.1035156e-5,-104.03637)" />
      <path
         style="fill:#296201;fill-opacity:1;stroke-width:0.0158438;stroke-dasharray:none"
         d="m 1035.8423,579.70703 -5.8232,-5.5664 0.2014,-0.003 c 0.516,-0.009 1.4406,-0.0389 1.8243,-0.0597 5.8706,-0.31833 11.5599,-1.99437 16.6661,-4.90973 0.2106,-0.12021 0.3851,-0.21666 0.3877,-0.21434 0.01,0.008 -0.1357,0.28327 -0.1612,0.30446 -0.014,0.012 -0.095,0.15963 -0.1796,0.32802 -0.084,0.16839 -0.1651,0.31608 -0.1797,0.32819 -0.035,0.029 -0.789,1.53734 -0.789,1.57819 0,0.0173 -0.052,0.13553 -0.1158,0.26267 -0.064,0.12713 -0.1241,0.26203 -0.1342,0.29976 -0.01,0.0377 -0.064,0.15852 -0.1187,0.26842 -0.055,0.1099 -0.1001,0.21412 -0.1001,0.23158 0,0.0175 -0.035,0.10182 -0.078,0.18744 -0.043,0.0856 -0.078,0.17163 -0.079,0.19112 -7e-4,0.0372 -0.091,0.22126 -0.092,0.1882 0,-0.0627 0.5294,-1.51554 0.7893,-2.15587 0.1954,-0.48158 0.2255,-0.57112 0.2255,-0.66977 0,-0.33504 -0.4435,-0.21741 -2.4062,0.63815 -0.3051,0.13299 -0.6957,0.29848 -0.8681,0.36777 -3.4345,1.38066 -9.0662,2.76846 -11.9047,2.93368 -0.1028,0.006 -0.6893,0.0152 -1.3033,0.0205 l -1.1165,0.01 1.819,1.73458 c 1.0004,0.95402 3.5521,3.38655 5.6705,5.40563 2.1183,2.01908 3.8972,3.71515 3.9531,3.76905 l 0.1016,0.098 -0.1829,2.8e-4 -0.1829,2.8e-4 z"
         id="path87"
         transform="matrix(1.7996485,0,0,1.7984423,-6.1035156e-5,-104.03637)" />
      <path
         style="fill:#296201;fill-opacity:1;stroke-width:0.0112032;stroke-dasharray:none"
         d="m 1061.7706,556.74859 c 0,-0.002 0.073,-0.12055 0.1616,-0.26254 0.9859,-1.57517 1.8253,-3.15294 2.5618,-4.81573 1.043,-2.35449 1.8577,-4.85911 2.3919,-7.35277 0.031,-0.14585 0.059,-0.27387 0.062,-0.2845 0,-0.0142 0.017,-0.0193 0.049,-0.0193 0.024,0 0.043,0.002 0.043,0.005 0,0.0187 -0.1482,0.72916 -0.2099,1.00634 -0.5203,2.33675 -1.2108,4.52385 -2.0666,6.54604 -0.2587,0.61117 -0.4818,1.0925 -0.8428,1.81771 -0.7589,1.52482 -1.2053,2.52251 -1.1734,2.62281 0.029,0.0907 0.331,0.0261 0.8069,-0.17242 0.079,-0.033 0.345,-0.15855 0.5911,-0.2791 0.4718,-0.2311 0.7069,-0.33793 1.033,-0.46952 0.8442,-0.34056 1.7542,-0.62693 2.8616,-0.90049 0.466,-0.11512 1.2933,-0.29967 1.3366,-0.29818 0.025,8.7e-4 -0.046,0.032 -0.074,0.0324 -0.041,5.3e-4 -0.1238,0.0204 -0.191,0.0457 -0.031,0.0115 -0.067,0.0209 -0.08,0.0209 -0.035,0 -0.1207,0.021 -0.1853,0.0454 -0.031,0.0115 -0.066,0.0209 -0.08,0.0209 -0.038,0 -0.1247,0.0223 -0.177,0.0454 -0.026,0.0115 -0.062,0.0209 -0.08,0.0209 -0.045,0 -0.1288,0.0205 -0.1852,0.0454 -0.026,0.0115 -0.062,0.0209 -0.081,0.0209 -0.018,0 -0.044,0.006 -0.058,0.0132 -0.013,0.007 -0.048,0.0172 -0.077,0.0221 -0.029,0.005 -0.076,0.013 -0.105,0.018 -0.029,0.005 -0.078,0.0224 -0.1101,0.0387 -0.032,0.0163 -0.073,0.0296 -0.092,0.0296 -0.019,0 -0.05,0.008 -0.069,0.0181 -0.019,0.01 -0.062,0.0246 -0.096,0.0325 -0.1355,0.032 -0.2219,0.0598 -0.286,0.0921 -0.037,0.0187 -0.077,0.034 -0.09,0.034 -0.013,0 -0.051,0.01 -0.086,0.0222 -0.035,0.0122 -0.1054,0.0301 -0.157,0.0398 -0.055,0.0103 -0.1244,0.033 -0.1682,0.0551 -0.041,0.0206 -0.091,0.0377 -0.1107,0.0379 -0.02,2.2e-4 -0.049,0.008 -0.064,0.0162 -0.015,0.009 -0.044,0.016 -0.064,0.0162 -0.02,2.2e-4 -0.066,0.0154 -0.1021,0.0336 -0.036,0.0183 -0.092,0.0388 -0.124,0.0455 -0.032,0.007 -0.077,0.0217 -0.099,0.0331 -0.023,0.0114 -0.056,0.0207 -0.075,0.0207 -0.019,0 -0.078,0.0224 -0.1328,0.0497 -0.054,0.0273 -0.1133,0.0497 -0.1308,0.0497 -0.017,0 -0.077,0.0224 -0.1332,0.0497 -0.056,0.0274 -0.1154,0.0497 -0.1325,0.0497 -0.017,0 -0.073,0.0224 -0.1254,0.0497 -0.054,0.0283 -0.1091,0.0497 -0.1288,0.0497 -0.02,0 -0.089,0.0275 -0.1669,0.0663 -0.075,0.0374 -0.1469,0.0663 -0.1658,0.0663 -0.018,0 -0.078,0.0224 -0.1325,0.0497 -0.054,0.0273 -0.1141,0.0497 -0.1325,0.0497 -0.019,0 -0.098,0.0325 -0.1879,0.0773 -0.086,0.0432 -0.1687,0.0773 -0.1869,0.0773 -0.019,0 -0.1251,0.0457 -0.2528,0.10884 -0.1213,0.0599 -0.241,0.11214 -0.2661,0.11616 -0.025,0.004 -0.1815,0.0744 -0.3474,0.15632 -0.1844,0.091 -0.3146,0.14901 -0.3348,0.14901 -0.022,0 -0.043,0.0107 -0.065,0.0328 -0.021,0.0219 -0.061,0.0425 -0.1208,0.0619 -0.125,0.0406 -0.8991,0.42777 -0.9366,0.4684 -0.02,0.0218 -0.058,0.041 -0.1185,0.0601 -0.049,0.0155 -0.1239,0.0457 -0.1666,0.0672 -0.043,0.0215 -0.077,0.0371 -0.077,0.0347 z"
         id="path88"
         transform="matrix(1.7996485,0,0,1.7984423,-6.1035156e-5,-104.03637)" />
      <path
         style="fill:#296201;fill-opacity:1;stroke-width:0.00560161;stroke-dasharray:none"
         d="m 1067.5937,102.66721 c 0,-0.0175 -0.01,-0.0952 -0.017,-0.17263 -0.2589,-2.608656 -0.8626,-5.236328 -1.7697,-7.702315 -0.028,-0.07525 -0.05,-0.138022 -0.05,-0.139488 0,-0.0015 0.037,-0.0027 0.083,-0.0027 h 0.082 l 0.061,0.183682 c 0.8013,2.424663 1.4174,5.194561 1.6579,7.453631 0.014,0.13 0.039,0.38798 0.039,0.40153 0,0.009 -0.01,0.01 -0.041,0.01 h -0.041 z"
         id="path89"
         transform="matrix(1.7996485,0,0,1.7984423,-6.1035156e-5,-104.03637)" />
      <path
         style="fill:#296201;fill-opacity:1;stroke-width:0.0112032;stroke-dasharray:none"
         d="m 1067.7334,106.36361 c 0,-0.90503 -0.011,-1.75987 -0.017,-1.89963 -0.027,-0.58802 -0.061,-1.12475 -0.096,-1.51918 -0.023,-0.25632 -0.024,-0.24306 0.021,-0.24306 h 0.037 l 0.01,0.0856 c 0.044,0.54334 0.062,1.02918 0.062,1.69872 6e-4,1.02383 0.038,2.16044 0.083,2.55773 0.018,0.15496 0.028,0.20105 0.046,0.20714 0.063,0.0209 3.0611,-2.93179 8.2646,-8.138461 l 3.1739,-3.175846 v 0.220931 0.220931 l -5.065,5.092345 c -2.7858,2.8008 -5.3893,5.41768 -5.7856,5.81531 l -0.7205,0.72296 z"
         id="path90"
         transform="matrix(1.7996485,0,0,1.7984423,-6.1035156e-5,-104.03637)" />
      <path
         style="fill:#296201;fill-opacity:1;stroke-width:0.0112032;stroke-dasharray:none"
         d="m 1065.7414,94.60769 c -0.01,-0.02181 -0.038,-0.09763 -0.065,-0.168491 -0.076,-0.204268 -0.2487,-0.63756 -0.3592,-0.90223 -0.6948,-1.664278 -1.5231,-3.252821 -2.4937,-4.78234 -0.069,-0.108457 -0.1252,-0.198925 -0.1252,-0.201041 0,-0.0021 0.2239,0.107752 0.4974,0.244151 0.3153,0.157187 0.5095,0.247998 0.5305,0.247998 0.019,0 0.1114,0.03926 0.2235,0.09545 0.1048,0.0525 0.2189,0.102133 0.2537,0.110296 0.035,0.0082 0.1529,0.05967 0.2623,0.114468 0.1196,0.05988 0.2124,0.09963 0.2326,0.09963 0.018,0 0.068,0.01751 0.1108,0.03892 0.042,0.02141 0.1182,0.05182 0.1682,0.06759 0.05,0.01577 0.1194,0.043 0.1542,0.06052 0.035,0.01752 0.076,0.03185 0.091,0.03185 0.016,0 0.057,0.01458 0.093,0.03241 0.035,0.01782 0.1058,0.04587 0.1566,0.06234 0.051,0.01646 0.1176,0.04161 0.1482,0.05587 0.031,0.01427 0.068,0.02599 0.084,0.02605 0.015,5.9e-5 0.069,0.02 0.1196,0.0443 0.05,0.02431 0.1052,0.04419 0.1221,0.04419 0.017,0 0.075,0.02171 0.1292,0.04824 0.054,0.02653 0.1244,0.05383 0.1563,0.06067 0.032,0.0068 0.093,0.02988 0.135,0.0512 0.042,0.02132 0.092,0.03877 0.1109,0.03877 0.019,0 0.047,0.0069 0.064,0.01523 0.016,0.0084 0.056,0.02076 0.088,0.02752 0.032,0.0068 0.093,0.02974 0.1351,0.05106 0.042,0.02132 0.093,0.03895 0.1132,0.03916 0.02,2.15e-4 0.049,0.0075 0.064,0.01618 0.015,0.0087 0.044,0.01597 0.064,0.01618 0.02,2.18e-4 0.08,0.02242 0.1351,0.05011 0.055,0.02769 0.115,0.04989 0.1352,0.05011 0.02,2.16e-4 0.048,0.0075 0.064,0.01618 0.015,0.0087 0.045,0.01614 0.066,0.01657 0.021,4.31e-4 0.051,0.0079 0.066,0.01657 0.015,0.0087 0.041,0.01597 0.058,0.01618 0.017,2.15e-4 0.063,0.01531 0.1037,0.03354 0.04,0.01823 0.087,0.03315 0.1043,0.03315 0.017,0 0.048,0.0069 0.067,0.01529 0.042,0.01776 0.1255,0.03949 0.1965,0.05126 0.027,0.0045 0.065,0.01325 0.083,0.01938 0.1187,0.03991 0.1961,0.06115 0.2704,0.07422 0.047,0.0082 0.1234,0.03271 0.1705,0.05445 0.047,0.02173 0.1013,0.03968 0.1206,0.03987 0.019,1.94e-4 0.045,0.0077 0.057,0.01657 0.012,0.0089 0.039,0.0164 0.061,0.01661 0.022,2.15e-4 0.052,0.0075 0.067,0.01618 0.015,0.0087 0.045,0.01614 0.066,0.01657 0.021,4.31e-4 0.051,0.0079 0.066,0.01657 0.015,0.0087 0.045,0.01614 0.066,0.01657 0.021,4.3e-4 0.051,0.0079 0.066,0.01657 0.015,0.0087 0.045,0.01614 0.066,0.01657 0.021,4.31e-4 0.051,0.0079 0.066,0.01657 0.015,0.0087 0.045,0.01614 0.066,0.01657 0.021,4.31e-4 0.051,0.0079 0.066,0.01657 0.015,0.0087 0.045,0.01614 0.066,0.01657 0.021,4.3e-4 0.051,0.0079 0.066,0.01657 0.015,0.0087 0.045,0.01614 0.066,0.01657 0.021,4.31e-4 0.051,0.0079 0.066,0.01657 0.018,0.01045 0.063,0.01606 0.1326,0.01657 0.069,5.18e-4 0.1143,0.0061 0.1325,0.01657 0.015,0.0087 0.044,0.01597 0.064,0.01618 0.02,2.15e-4 0.047,0.0063 0.061,0.01357 0.013,0.0072 0.046,0.01667 0.074,0.02095 0.103,0.0161 0.2789,0.0549 0.2999,0.06615 0.041,0.02183 0.2355,0.05734 0.352,0.06417 0.064,0.0037 0.1268,0.01302 0.1401,0.02062 0.013,0.0076 0.041,0.01389 0.061,0.01398 0.02,9.3e-5 0.044,0.0053 0.053,0.01154 0.018,0.01259 0.019,0.01261 -0.3094,-0.0236 -0.7029,-0.0776 -1.3623,-0.193621 -1.9832,-0.34894 -0.5668,-0.141795 -0.9359,-0.256615 -1.7954,-0.5584 -1.554,-0.545697 -2.6776,-0.878522 -2.9812,-0.883076 -0.1144,-0.0017 -0.1229,0.02716 -0.069,0.23543 0.095,0.366757 0.3963,1.065508 0.8557,1.984031 0.3628,0.725359 0.6603,1.428809 0.9871,2.333934 0.085,0.23557 0.2131,0.60497 0.2131,0.614767 0,0.0022 -0.035,0.004 -0.078,0.004 h -0.078 z"
         id="path91"
         transform="matrix(1.7996485,0,0,1.7984423,-6.1035156e-5,-104.03637)" />
      <path
         style="fill:#296201;fill-opacity:1;stroke-width:0.0112032;stroke-dasharray:none"
         d="m 1049.7553,77.232668 c -2.1346,-1.011223 -4.4019,-1.778014 -6.7894,-2.296068 -0.1914,-0.04154 -0.3341,-0.0759 -0.317,-0.07636 0.045,-0.0012 0.511,0.03925 0.8253,0.07166 0.7342,0.0757 1.2864,0.167314 1.767,0.293146 0.2625,0.06875 0.5384,0.162427 1.0448,0.354773 1.5348,0.582944 2.5968,0.936866 2.8114,0.936866 0.043,0 0.045,-0.0011 0.045,-0.03723 0,-0.09957 -0.177,-0.583063 -0.4474,-1.222301 -0.053,-0.124572 -0.099,-0.233288 -0.1021,-0.241591 -0.01,-0.0122 0,-0.01266 0.017,-0.0024 0.015,0.008 0.069,0.102495 0.1457,0.255243 0.069,0.137766 0.1314,0.247563 0.1437,0.254128 0.012,0.0066 0.074,0.116134 0.1438,0.257037 0.072,0.144099 0.1356,0.257854 0.1545,0.275443 0.018,0.01648 0.062,0.08857 0.098,0.160203 0.036,0.07163 0.079,0.14267 0.095,0.157862 0.016,0.01519 0.064,0.09543 0.1055,0.178311 0.042,0.08288 0.088,0.160266 0.1027,0.171969 0.015,0.0117 0.057,0.08062 0.093,0.153145 0.036,0.07253 0.08,0.144296 0.096,0.159488 0.016,0.01519 0.049,0.06604 0.073,0.112988 0.024,0.04695 0.055,0.09301 0.069,0.102354 0.031,0.02044 0.065,0.08475 0.043,0.08189 0,-5.94e-4 -0.1028,-0.04583 -0.2182,-0.100531 z"
         id="path92"
         transform="matrix(1.7996485,0,0,1.7984423,-6.1035156e-5,-104.03637)" />
      <path
         style="fill:#296201;fill-opacity:1;stroke-width:0.0158438;stroke-dasharray:none"
         d="m 1006.9609,73.603636 v -0.158323 l 9.1836,-0.0011 9.1836,-0.0011 5.5215,-5.280159 5.5215,-5.280158 h 0.1501 0.1501 l -0.047,0.04462 c -0.4387,0.420303 -10.6121,10.278395 -10.9606,10.620966 l -0.1641,0.161263 -5.8047,0.01578 c -3.1926,0.0087 -7.3638,0.02045 -9.2695,0.02615 l -3.4649,0.01037 z"
         id="path93"
         transform="matrix(1.7996485,0,0,1.7984423,-6.1035156e-5,-104.03637)" />
      <path
         style="fill:#296201;fill-opacity:1;stroke-width:0.063375;stroke-dasharray:none"
         d="M 860.22099,73.856261 859.37949,73.5 890.50224,73.48215 921.625,73.4643 l 0.49117,0.236597 0.49116,0.236597 -1.20991,0.0333 -1.20992,0.0333 1.3125,0.01579 c 1.00004,0.01203 1.3497,0.03706 1.46875,0.105114 0.1356,0.07752 -3.94469,0.0892 -30.875,0.08842 l -31.03125,-9e-4 z"
         id="path94"
         transform="matrix(1.7996485,0,0,1.7984423,-6.1035156e-5,-104.03637)" />
      <path
         style="fill:#296201;fill-opacity:1;stroke-width:0.063375;stroke-dasharray:none"
         d="m 923.45313,73.985488 c 0.14609,-0.01316 0.38516,-0.01316 0.53125,0 0.14609,0.01316 0.0266,0.02392 -0.26563,0.02392 -0.29218,0 -0.41171,-0.01077 -0.26562,-0.02392 z"
         id="path95"
         transform="matrix(1.7996485,0,0,1.7984423,-6.1035156e-5,-104.03637)" />
      <path
         style="fill:#296201;fill-opacity:1;stroke-width:0.063375;stroke-dasharray:none"
         d="m 922.1875,73.71263 -0.4375,-0.239928 20.79688,-0.002 20.79687,-0.002 v 0.1798 0.179799 l -10.92187,0.03774 c -6.00703,0.02076 -15.16875,0.04871 -20.35938,0.06211 l -9.4375,0.02436 z"
         id="path96"
         transform="matrix(1.7996485,0,0,1.7984423,-6.1035156e-5,-104.03637)" />
      <path
         style="fill:#296201;fill-opacity:1;stroke-width:0.063375;stroke-dasharray:none"
         d="m 841.65625,73.84375 v -0.375 h 1.25 1.25 v 0.375 0.375 h -1.25 -1.25 z"
         id="path97"
         transform="matrix(1.7996485,0,0,1.7984423,-6.1035156e-5,-104.03637)" />
      <path
         style="fill:#296201;fill-opacity:1;stroke-width:0.063375;stroke-dasharray:none"
         d="m 844.21875,73.84375 v -0.375 h 7.51913 7.51913 l 0.80887,0.348833 c 0.44488,0.191858 0.82065,0.360608 0.83504,0.375 0.0144,0.01439 -3.73321,0.02617 -8.328,0.02617 h -8.35417 z"
         id="path98"
         transform="matrix(1.7996485,0,0,1.7984423,-6.1035156e-5,-104.03637)" />
      <path
         style="fill:#296201;fill-opacity:1;stroke-width:0.063375;stroke-dasharray:none"
         d="m 791.53125,73.842916 -1.09375,-0.362925 25.57813,-0.0056 25.57812,-0.0056 v 0.375 0.375 l -24.48437,-0.0065 -24.48438,-0.0065 z"
         id="path99"
         transform="matrix(1.7996485,0,0,1.7984423,-6.1035156e-5,-104.03637)" />
      <path
         style="fill:#296201;fill-opacity:1;stroke-width:0.063375;stroke-dasharray:none"
         d="m 710.96875,74.1616 c -0.15331,-0.04385 22.2207,-0.118074 43.08852,-0.142944 l 10.56773,-0.01259 -11.4375,-0.04071 c -6.29062,-0.02239 -18.6375,-0.04652 -27.4375,-0.05362 l -16,-0.01291 -0.9375,-0.209809 -0.9375,-0.20981 41.25,-0.0019 41.25,-0.0019 1.0625,0.367529 1.0625,0.36753 -40.6875,-0.0021 c -22.37812,-0.0011 -40.75781,-0.02218 -40.84375,-0.04675 z"
         id="path100"
         transform="matrix(1.7996485,0,0,1.7984423,-6.1035156e-5,-104.03637)" />
      <path
         style="fill:#296201;fill-opacity:1;stroke-width:0.063375;stroke-dasharray:none"
         d="m 660.46875,73.808912 c -23.63281,-0.04228 -46.9414,-0.07986 -51.79687,-0.08351 -8.78424,-0.0066 -8.82813,-0.0073 -8.82813,-0.131649 0,-0.124903 0.0417,-0.125 53.95448,-0.125 h 53.95447 l 0.9049,0.214736 0.9049,0.214736 -3.0625,-0.0062 c -1.68437,-0.0034 -22.39843,-0.04081 -46.03125,-0.08309 z"
         id="path101"
         transform="matrix(1.7996485,0,0,1.7984423,-6.1035156e-5,-104.03637)" />
      <path
         style="fill:#296201;fill-opacity:1;stroke-width:0.063375;stroke-dasharray:none"
         d="m 674.23847,74.046946 c 0.64678,-0.01017 1.6874,-0.01015 2.3125,3.6e-5 0.62509,0.01019 0.0959,0.0185 -1.17597,0.01848 -1.27187,-2e-5 -1.78331,-0.0084 -1.13653,-0.01852 z"
         id="path102"
         transform="matrix(1.7996485,0,0,1.7984423,-6.1035156e-5,-104.03637)" />
      <path
         style="fill:#296201;fill-opacity:1;stroke-width:0.063375;stroke-dasharray:none"
         d="m 599.84375,93.34375 v -19.0625 h 76.71875 76.71875 v 19.0625 19.0625 H 676.5625 599.84375 Z"
         id="path103"
         transform="matrix(1.7996485,0,0,1.7984423,-6.1035156e-5,-104.03637)" />
      <path
         style="fill:#296201;fill-opacity:1;stroke-width:0.0158438;stroke-dasharray:none"
         d="m 565.27344,74.226563 c 0,-0.0086 0.0158,-0.01637 0.0352,-0.01728 0.11949,-0.0056 0.14008,-0.0097 0.15307,-0.03024 0.009,-0.01376 0.0145,-0.01548 0.0147,-0.0043 1.6e-4,0.01251 0.0141,0.01469 0.0432,0.0068 0.0236,-0.0064 0.0674,-0.0094 0.0972,-0.0066 0.0298,0.0028 0.079,-0.0032 0.10938,-0.01325 0.0303,-0.01005 0.10792,-0.02026 0.17237,-0.02271 0.0644,-0.0024 0.17318,-0.01456 0.24161,-0.02693 0.0684,-0.01237 0.13276,-0.01929 0.14296,-0.01537 0.0102,0.0039 0.0526,-0.0029 0.0943,-0.01504 0.0417,-0.01218 0.10312,-0.01882 0.13651,-0.01474 0.0406,0.005 0.0573,0.0019 0.0504,-0.0092 -0.006,-0.0094 0.002,-0.01666 0.0174,-0.0167 0.1287,-2.82e-4 0.21842,-0.0087 0.23525,-0.02195 0.011,-0.0087 0.041,-0.01526 0.0667,-0.01453 0.0256,7.29e-4 0.0432,-0.0041 0.0391,-0.01081 -0.004,-0.0067 0.0256,-0.01362 0.0661,-0.01545 0.0405,-0.0018 0.0982,-0.0068 0.12831,-0.01102 0.0301,-0.0042 0.0705,-0.0074 0.0898,-0.0071 0.0193,3.18e-4 0.0352,-0.0062 0.0352,-0.01438 0,-0.0082 0.009,-0.01147 0.0202,-0.0072 0.0111,0.0043 0.048,-0.0015 0.082,-0.01278 0.034,-0.0113 0.0846,-0.01914 0.11258,-0.01742 0.0279,0.0017 0.0508,-0.0019 0.0508,-0.008 0,-0.0061 0.0246,-0.0083 0.0547,-0.0047 0.0335,0.0039 0.0547,-3.39e-4 0.0547,-0.01095 0,-0.0095 0.005,-0.0165 0.0117,-0.01548 0.006,0.001 0.0152,4.32e-4 0.0195,-0.0013 0.004,-0.0017 0.0219,-0.0055 0.0391,-0.0084 0.0859,-0.0143 0.12542,-0.02705 0.13615,-0.04393 0.009,-0.01407 0.0119,-0.01384 0.012,9.54e-4 3.3e-4,0.0267 0.117,0.02554 0.14398,-0.0014 0.0115,-0.01153 0.0344,-0.019 0.0508,-0.01659 0.0164,0.0024 0.0532,-0.0054 0.0817,-0.01729 0.0285,-0.01192 0.052,-0.01676 0.0521,-0.01075 1.4e-4,0.006 0.007,3.75e-4 0.0154,-0.01252 0.0119,-0.01841 0.0152,-0.01884 0.0154,-0.002 1.9e-4,0.0175 0.005,0.01779 0.0242,0.0015 0.0132,-0.01095 0.0448,-0.01931 0.0703,-0.01858 0.0255,7.25e-4 0.0463,-0.0035 0.0463,-0.0094 0,-0.0059 0.0369,-0.0095 0.082,-0.0079 0.0451,0.0015 0.10313,-0.0035 0.12891,-0.01114 0.0258,-0.0076 0.0662,-0.0178 0.0898,-0.02256 0.0269,-0.0054 0.0431,-0.0188 0.0432,-0.0357 2.1e-4,-0.02321 0.002,-0.02372 0.0156,-0.0036 0.0128,0.0195 0.0177,0.01986 0.0291,0.0021 0.0106,-0.0165 0.0152,-0.01687 0.0203,-0.0017 0.005,0.01552 0.0146,0.01519 0.0449,-0.0016 0.0211,-0.01167 0.05,-0.02147 0.0644,-0.02177 0.0143,-3.04e-4 0.0308,-0.0053 0.0367,-0.0112 0.006,-0.0059 0.0191,-0.0074 0.0295,-0.0034 0.0104,0.004 0.0466,-0.0047 0.0805,-0.01921 0.0339,-0.01454 0.0757,-0.02753 0.0929,-0.02886 0.0172,-0.0013 0.0501,-0.0037 0.0731,-0.0053 0.023,-0.0016 0.0521,-0.0131 0.0645,-0.02558 0.0125,-0.01248 0.0267,-0.01867 0.0316,-0.01375 0.0168,0.01684 0.12116,-0.01118 0.10983,-0.0295 -0.007,-0.01172 -10e-4,-0.01386 0.0178,-0.0065 0.0172,0.0066 0.0338,0.0029 0.0414,-0.0091 0.009,-0.01492 0.0128,-0.01518 0.013,-0.001 1.3e-4,0.01047 0.0107,0.01501 0.0236,0.01008 0.0128,-0.0049 0.0203,-0.01385 0.0166,-0.01982 -0.004,-0.006 0.0187,-0.01086 0.0498,-0.01086 0.0311,0 0.0594,-0.0085 0.0628,-0.01885 0.003,-0.01037 0.0128,-0.01484 0.0207,-0.0099 0.0192,0.01189 0.23292,-0.0406 0.23292,-0.05721 0,-0.0072 0.011,-0.0088 0.0244,-0.0036 0.0134,0.0052 0.0694,-0.0028 0.12429,-0.01766 0.0549,-0.01487 0.10838,-0.02419 0.11881,-0.02071 0.0104,0.0035 -0.0912,0.03617 -0.22573,0.07266 -0.3908,0.105945 -0.47929,0.142791 -0.47929,0.199564 0,0.229846 3.17266,0.350422 11.25781,0.427848 3.848,0.03685 9.28655,0.06159 19.32422,0.0879 l 3.63672,0.0095 v 0.06057 0.06057 h -19.17969 c -12.77604,0 -19.17969,-0.0052 -19.17969,-0.01563 z"
         id="path104"
         transform="matrix(1.7996485,0,0,1.7984423,-6.1035156e-5,-104.03637)" />
      <path
         style="fill:#296201;fill-opacity:1;stroke-width:0.0316875;stroke-dasharray:none"
         d="m 597.97049,73.632813 c -0.57327,-1.388032 -4.10854,-9.85215 -4.97623,-11.914063 -1.10366,-2.622648 -1.68414,-3.985242 -2.14749,-5.040843 -0.13056,-0.297464 -0.23739,-0.547073 -0.23739,-0.554687 0,-0.0076 0.0457,-0.01374 0.10156,-0.01361 0.0949,2.25e-4 0.10687,0.01293 0.18318,0.195313 0.0841,0.200934 0.64192,1.513428 2.65298,6.241947 0.63963,1.503907 1.50347,3.535938 1.91967,4.515625 0.41619,0.979688 1.19762,2.81836 1.73651,4.085938 l 0.9798,2.304687 4.59596,0.0059 4.59596,0.0059 -3.64062,0.02355 c -2.00235,0.01295 -3.69572,0.03497 -3.76306,0.04892 -0.13538,0.02806 -0.17618,0.08246 -0.0898,0.119776 0.0308,0.01331 0.30914,0.0337 0.61851,0.04532 0.42114,0.01581 0.17925,0.02248 -0.96253,0.02652 l -1.52503,0.0054 z"
         id="path105"
         transform="matrix(1.7996485,0,0,1.7984423,-6.1035156e-5,-104.03637)" />
      <path
         style="fill:#296201;fill-opacity:1;stroke-width:0.0316875;stroke-dasharray:none"
         d="m 603.64063,74.166828 v -0.06755 l 0.98947,0.02067 c 0.54421,0.01137 7.2028,0.02067 14.79687,0.02067 12.25242,0 13.80741,0.0053 13.80741,0.04687 0,0.0416 -1.66493,0.04687 -14.79688,0.04687 h -14.79687 z"
         id="path106"
         transform="matrix(1.7996485,0,0,1.7984423,-6.1035156e-5,-104.03637)" />
      <path
         style="fill:#296201;fill-opacity:1;stroke-width:0.0316875;stroke-dasharray:none"
         d="m 515.92188,74.171875 c 0,-0.06212 0.021,-0.0625 3.49219,-0.06298 1.9207,-2.62e-4 7.20468,-0.01402 11.74218,-0.03058 18.91769,-0.06904 24.80856,-0.186429 24.50662,-0.488362 -0.0113,-0.01125 -0.19313,-0.06738 -0.40416,-0.124717 -0.56882,-0.154553 -1.60674,-0.494806 -1.5454,-0.506618 0.0293,-0.0056 0.14096,0.01708 0.24812,0.0505 0.10715,0.03342 0.30732,0.09014 0.44482,0.126033 0.80253,0.209512 1.1388,0.295132 1.25,0.318267 0.0688,0.0143 0.18828,0.04253 0.26563,0.06273 0.43138,0.112664 1.01409,0.246447 1.21875,0.279808 0.1289,0.02101 0.33984,0.05691 0.46875,0.07978 0.23528,0.04173 0.47499,0.08074 0.86719,0.141103 0.11601,0.01786 0.28828,0.04564 0.38281,0.06175 0.25873,0.04407 1.01768,0.124918 1.26562,0.134813 0.12032,0.0048 -9.77617,0.01149 -21.99218,0.01485 -22.19215,0.0061 -22.21094,0.0061 -22.21094,-0.05638 z"
         id="path107"
         transform="matrix(1.7996485,0,0,1.7984423,-6.1035156e-5,-104.03637)" />
      <path
         style="fill:#296201;fill-opacity:1;stroke-width:0.0316875;stroke-dasharray:none"
         d="m 540.10363,63.755914 c -0.98984,-1.11738 -1.57969,-1.912575 -2.25286,-3.037164 -0.95413,-1.593947 -1.61971,-2.353325 -1.83514,-2.09375 -0.11729,0.141328 -0.12537,-0.06705 -0.0156,-0.403226 0.17259,-0.528705 0.036,-1.077918 -0.38928,-1.565524 -0.30269,-0.347022 -0.46894,-0.741601 -0.46972,-1.114803 -4.2e-4,-0.198559 0.0598,-0.499696 0.0955,-0.477627 0.0128,0.0079 0.0159,0.04248 0.007,0.07684 -0.009,0.03436 -0.002,0.06247 0.0161,0.06247 0.0179,0 0.0498,0.05273 0.0709,0.117188 0.0211,0.06445 0.056,0.145312 0.0776,0.179687 0.0215,0.03437 0.0844,0.195651 0.13964,0.35839 0.0553,0.16274 0.11899,0.324459 0.14164,0.359375 0.0226,0.03492 0.0637,0.133798 0.0912,0.219735 0.0275,0.08594 0.0717,0.195431 0.0981,0.243319 0.0265,0.04789 0.0799,0.181481 0.11875,0.296875 0.0551,0.163607 0.0855,0.212005 0.13819,0.219792 0.0372,0.0055 0.0676,0.03068 0.0676,0.05597 0,0.03851 0.10125,0.261878 0.22153,0.488734 0.0193,0.0364 0.0176,0.05469 -0.005,0.05469 -0.0188,0 -0.0277,0.01758 -0.0198,0.03906 0.008,0.02148 0.0305,0.03544 0.0502,0.03102 0.0401,-0.009 0.10658,0.139079 0.081,0.18043 -0.009,0.01458 0.019,0.10391 0.0623,0.1985 0.0433,0.09459 0.0787,0.185223 0.0787,0.201408 0,0.01618 0.0211,0.04693 0.0469,0.06833 0.059,0.04893 0.0604,0.09375 0.003,0.09375 -0.0356,0 -0.0371,0.01467 -0.008,0.07788 0.0199,0.04283 0.0467,0.07799 0.0596,0.07813 0.0129,1.34e-4 0.0234,0.02572 0.0234,0.05685 0,0.03113 0.0269,0.08548 0.0598,0.120764 0.0329,0.03529 0.0645,0.09756 0.0703,0.138386 0.006,0.04451 0.0356,0.07893 0.073,0.08598 0.0344,0.0065 0.0725,0.0277 0.0848,0.04719 0.0123,0.0195 0.0392,0.03545 0.0599,0.03545 0.0207,0 0.0441,0.01954 0.0521,0.04341 0.009,0.02635 5.9e-4,0.03484 -0.0208,0.02159 -0.0478,-0.02953 -0.0429,0.01613 0.009,0.0846 0.0233,0.03072 0.0598,0.05182 0.081,0.04687 0.0213,-0.0049 0.0458,0.01055 0.0544,0.03443 0.01,0.02659 0.002,0.03496 -0.0195,0.02159 -0.0502,-0.03104 -0.0419,0.04862 0.0126,0.120655 0.0252,0.03336 0.0459,0.0861 0.0459,0.117187 0,0.03109 0.0211,0.05829 0.0469,0.06043 0.0258,0.0021 0.0633,0.0057 0.0833,0.0078 0.02,0.0021 0.043,0.02344 0.0509,0.04732 0.009,0.02635 5.9e-4,0.03484 -0.0208,0.02159 -0.0465,-0.02876 -0.0446,-0.01187 0.0111,0.09549 0.0255,0.04923 0.063,0.08951 0.0833,0.08951 0.0203,0 0.0434,0.01954 0.0514,0.04341 0.01,0.02857 0.001,0.03509 -0.0249,0.01909 -0.0217,-0.01338 -0.0336,-0.01182 -0.0265,0.0035 0.0642,0.138587 0.10367,0.199662 0.12908,0.199662 0.0165,0 0.0123,-0.02143 -0.009,-0.04763 -0.0217,-0.0262 -0.0316,-0.05554 -0.0219,-0.06521 0.028,-0.02802 0.12392,0.137774 0.10107,0.174741 -0.0113,0.01837 -0.004,0.02953 0.0168,0.02481 0.0206,-0.0047 0.0446,0.01095 0.0533,0.03483 0.01,0.02659 0.002,0.03496 -0.0195,0.02159 -0.0194,-0.012 -0.0353,-0.0077 -0.0353,0.0095 0,0.04086 0.13135,0.266184 0.16303,0.279672 0.0135,0.0057 0.0245,0.02479 0.0245,0.04236 0,0.01757 0.0352,0.07373 0.0781,0.124793 0.043,0.05107 0.0781,0.113866 0.0781,0.139556 0,0.05955 0.0792,0.139389 0.14833,0.149536 0.0293,0.0043 0.0607,0.03901 0.0697,0.07711 0.009,0.03811 0.0301,0.0674 0.0468,0.0651 0.0168,-0.0023 0.0362,0.01289 0.0431,0.03376 0.007,0.02177 -0.002,0.02864 -0.0227,0.01612 -0.0418,-0.02584 -0.0454,0.01121 -0.007,0.07181 0.015,0.02369 0.0413,0.03439 0.0585,0.02378 0.0377,-0.02331 0.11879,0.06619 0.0879,0.09707 -0.012,0.01198 -0.0349,0.0011 -0.0508,-0.02419 -0.0254,-0.04022 -0.029,-0.04011 -0.0289,9.05e-4 1.1e-4,0.02578 0.0456,0.06797 0.10109,0.09375 0.0555,0.02578 0.10264,0.06445 0.10479,0.08594 0.002,0.02148 0.006,0.05396 0.008,0.07216 0.002,0.0182 0.017,0.025 0.033,0.01511 0.016,-0.0099 0.0379,-0.0037 0.0487,0.01378 0.0108,0.01747 0.004,0.03176 -0.0145,0.03176 -0.0188,0 0.009,0.04171 0.0607,0.0927 0.0522,0.05098 0.0948,0.109199 0.0948,0.129367 0,0.02017 0.0246,0.05535 0.0547,0.07818 0.0369,0.02802 0.0413,0.04184 0.0134,0.04251 -0.0317,7.61e-4 -0.0302,0.01206 0.006,0.04843 0.0261,0.02609 0.0609,0.04367 0.0773,0.03906 0.0368,-0.01029 0.19222,0.211526 0.19222,0.274267 0,0.02502 0.0149,0.04549 0.0331,0.04549 0.0182,0 0.0245,0.01384 0.0141,0.03075 -0.0104,0.01691 0.0309,0.08066 0.0919,0.141667 0.061,0.061 0.11092,0.124507 0.11092,0.141121 0,0.01662 0.0169,0.02669 0.0376,0.0224 0.0207,-0.0043 0.04,0.0098 0.043,0.03125 0.003,0.02148 0.007,0.05268 0.009,0.06933 0.002,0.01665 0.0274,0.02124 0.0562,0.0102 0.0381,-0.01461 0.0473,-0.0072 0.0341,0.02738 -0.0103,0.02695 0.007,0.0655 0.0398,0.08924 0.0319,0.02299 0.0512,0.05278 0.0429,0.06621 -0.008,0.01343 0.0136,0.05306 0.0485,0.08806 0.035,0.035 0.0636,0.05489 0.0636,0.04419 0,-0.0107 0.0209,-0.0021 0.0465,0.01917 0.0256,0.02124 0.0375,0.05326 0.0264,0.07115 -0.0113,0.01837 -0.005,0.02325 0.0144,0.01121 0.0191,-0.0118 0.0514,0.01047 0.0723,0.04986 0.0208,0.03915 0.0639,0.08973 0.0958,0.112388 0.0319,0.02266 0.051,0.05265 0.0423,0.06664 -0.0277,0.04491 0.10725,0.187524 0.1588,0.167745 0.0306,-0.01175 0.0449,-0.0027 0.0394,0.02486 -0.005,0.02382 0.0156,0.08901 0.0453,0.144868 0.0297,0.05586 0.0431,0.100708 0.0298,0.09966 -0.0133,-10e-4 -0.18854,-0.187373 -0.38936,-0.414062 z m -3.61052,-5.772778 c -0.009,-0.03506 -0.0236,-0.05676 -0.0322,-0.04822 -0.0169,0.01691 0.013,0.111962 0.0352,0.111962 0.008,0 0.006,-0.02868 -0.003,-0.06374 z m -0.23153,-0.424114 c -0.0282,-0.06875 -0.0401,-0.07746 -0.0499,-0.03652 -0.007,0.02956 0.006,0.07384 0.0284,0.09841 0.0578,0.06271 0.0646,0.04315 0.0215,-0.06189 z"
         id="path108"
         transform="matrix(1.7996485,0,0,1.7984423,-6.1035156e-5,-104.03637)" />
      <path
         style="fill:#296201;fill-opacity:1;stroke-width:0.0316875;stroke-dasharray:none"
         d="m 502.10938,73.456315 v -0.128111 l 12.29973,-0.0079 12.29974,-0.0079 0.0714,-0.171875 c 0.0393,-0.09453 0.19412,-0.460156 0.34412,-0.8125 0.15,-0.352343 0.40999,-0.964062 0.57776,-1.359375 0.16777,-0.395312 0.64595,-1.520312 1.06261,-2.5 0.41666,-0.979687 0.99348,-2.336718 1.28184,-3.015625 2.03793,-4.798165 4.69671,-11.044554 4.76198,-11.1875 0.0432,-0.09453 0.0793,-0.147265 0.0803,-0.117187 9.9e-4,0.03008 0.0159,0.05469 0.0331,0.05469 0.0172,0 0.0312,0.04219 0.0312,0.09375 0,0.05156 0.0141,0.09375 0.0312,0.09375 0.0172,0 0.0312,0.02531 0.0312,0.05625 0,0.03094 0.0129,0.06961 0.0286,0.08594 0.0157,0.01633 0.0331,0.07428 0.0385,0.128787 0.007,0.0747 -0.0104,0.117886 -0.0725,0.175394 -0.0453,0.04196 -0.10514,0.120414 -0.13303,0.174338 -0.0426,0.08229 -0.0694,0.09844 -0.16708,0.10051 -0.064,0.0014 -0.0955,0.01065 -0.0701,0.02065 0.12689,0.04981 0.12495,0.08602 -0.0207,0.38665 -0.94869,1.958028 -2.23469,4.917445 -5.53214,12.73086 -1.02275,2.423438 -1.93757,4.59062 -2.03294,4.815961 l -0.17339,0.409711 -3.94045,0.01994 c -2.16724,0.01097 -6.58419,0.02702 -9.81544,0.03567 -3.23125,0.0086 -7.03164,0.02414 -8.44531,0.03444 l -2.57031,0.01871 z"
         id="path109"
         transform="matrix(1.7996485,0,0,1.7984423,-6.1035156e-5,-104.03637)" />
      <path
         style="fill:#296201;fill-opacity:1;stroke-width:0.0316875;stroke-dasharray:none"
         d="m 450.42188,85.765625 v -11.5 h 38.35937 38.35938 v 11.5 11.5 h -38.35938 -38.35937 z"
         id="path110"
         transform="matrix(1.7996485,0,0,1.7984423,-6.1035156e-5,-104.03637)" />
      <path
         style="fill:#296201;fill-opacity:1;stroke-width:0.0316875;stroke-dasharray:none"
         d="m 450.42188,74.15106 v -0.08332 l 9.09894,0.02082 c 5.00442,0.01145 19.74851,0.02081 32.76465,0.02081 20.57311,0 23.66344,0.0059 23.64845,0.04495 -0.013,0.03387 0.0161,0.04793 0.11816,0.05704 0.0745,0.0066 -14.66184,0.01455 -32.74739,0.01755 l -32.88281,0.0055 z"
         id="path111"
         transform="matrix(1.7996485,0,0,1.7984423,-6.1035156e-5,-104.03637)" />
      <path
         style="fill:#296201;fill-opacity:1;stroke-width:0.0316875;stroke-dasharray:none"
         d="m 450.42188,73.53125 v -0.203125 h 25.84375 25.84375 v 0.125 0.125 l -1.53906,3.93e-4 c -0.84649,2.16e-4 -11.36172,0.03519 -23.36719,0.07772 -12.00547,0.04253 -22.94258,0.07751 -24.30469,0.07773 l -2.47656,4.04e-4 z"
         id="path112"
         transform="matrix(1.7996485,0,0,1.7984423,-6.1035156e-5,-104.03637)" />
      <path
         style="fill:#296201;fill-opacity:1;stroke-width:0.0316875;stroke-dasharray:none"
         d="m 397.42188,73.625 v -0.296875 h 26.5 26.5 v 0.199799 0.199798 l -0.50782,0.01746 c -0.39699,0.01365 -49.97412,0.183351 -52,0.177996 l -0.49218,-0.0013 z"
         id="path113"
         transform="matrix(1.7996485,0,0,1.7984423,-6.1035156e-5,-104.03637)" />
      <path
         style="fill:#296201;fill-opacity:1;stroke-width:0.0316875;stroke-dasharray:none"
         d="m 397.42188,74.140625 v -0.09375 l 9.50781,4e-6 c 5.2293,10e-7 17.1543,0.0094 26.5,0.02082 l 16.99219,0.02082 v 0.07293 0.07293 h -26.5 -26.5 z"
         id="path114"
         transform="matrix(1.7996485,0,0,1.7984423,-6.1035156e-5,-104.03637)" />
      <path
         style="fill:#296201;fill-opacity:1;stroke-width:0.0316875;stroke-dasharray:none"
         d="m 348.73438,73.78125 v -0.453125 h 24.34375 24.34375 v 0.291791 0.291791 l -1.28907,0.02067 c -0.70898,0.01137 -2.9625,0.02274 -5.00781,0.02526 -2.04531,0.0025 -5.3289,0.0138 -7.29687,0.02504 l -3.57813,0.02045 5.25264,0.0062 c 2.88895,0.0034 6.75262,0.0156 8.58594,0.02703 l 3.3333,0.02078 v 0.08859 0.08859 h -24.34375 -24.34375 z"
         id="path115"
         transform="matrix(1.7996485,0,0,1.7984423,-6.1035156e-5,-104.03637)" />
      <path
         style="fill:#296201;fill-opacity:1;stroke-width:0.0316875;stroke-dasharray:none"
         d="m 306.85938,73.78125 v -0.453125 h 20.9375 20.9375 v 0.453125 0.453125 h -20.9375 -20.9375 z"
         id="path116"
         transform="matrix(1.7996485,0,0,1.7984423,-6.1035156e-5,-104.03637)" />
      <path
         style="fill:#296201;fill-opacity:1;stroke-width:0.0316875;stroke-dasharray:none"
         d="m 264.54688,73.78125 v -0.453125 h 21.15625 21.15625 v 0.453125 0.453125 h -21.15625 -21.15625 z"
         id="path117"
         transform="matrix(1.7996485,0,0,1.7984423,-6.1035156e-5,-104.03637)" />
      <path
         style="fill:#296201;fill-opacity:1;stroke-width:0.0316875;stroke-dasharray:none"
         d="m 221.26563,73.78125 v -0.453125 h 21.64062 21.64063 v 0.453125 0.453125 h -21.64063 -21.64062 z"
         id="path118"
         transform="matrix(1.7996485,0,0,1.7984423,-6.1035156e-5,-104.03637)" />
      <path
         style="fill:#296201;fill-opacity:1;stroke-width:0.0316875;stroke-dasharray:none"
         d="m 169.45313,74.145788 v -0.08859 l 3.56767,-0.02079 c 1.96223,-0.01143 4.3423,-0.02277 5.28907,-0.02519 0.94676,-0.0024 1.64404,-0.01509 1.54951,-0.02816 -0.0945,-0.01307 -2.47461,-0.02515 -5.28907,-0.02685 l -5.11718,-0.0031 v -0.3125 -0.3125 h 25.90625 25.90625 v 0.453125 0.453125 h -25.90625 -25.90625 z"
         id="path119"
         transform="matrix(1.7996485,0,0,1.7984423,-6.1035156e-5,-104.03637)" />
      <path
         style="fill:#296201;fill-opacity:1;stroke-width:0.0316875;stroke-dasharray:none"
         d="m 143.17188,73.858565 c -9.0836,-0.02982 -19.86602,-0.06467 -23.96094,-0.07744 l -7.44531,-0.02323 V 73.54301 73.328125 h 28.84375 28.84375 V 73.625 73.921875 l -4.88282,-0.0045 c -2.68554,-0.0025 -12.31484,-0.02894 -21.39843,-0.05876 z"
         id="path120"
         transform="matrix(1.7996485,0,0,1.7984423,-6.1035156e-5,-104.03637)" />
      <path
         style="fill:#296201;fill-opacity:1;stroke-width:0.0316875;stroke-dasharray:none"
         d="m 106.84226,73.742193 -2.34523,-0.0082 -1.13991,-1.085741 c -0.62695,-0.597158 -3.06646,-2.920898 -5.421138,-5.163867 -4.712033,-4.488496 -7.100878,-6.75727 -9.280838,-8.814356 -2.030543,-1.916089 -2.191205,-2.065706 -3.030144,-2.82183 -0.700354,-0.63122 -0.75059,-0.670287 -0.758917,-0.590201 -0.0049,0.04717 0.04961,0.795919 0.121149,1.663887 0.200374,2.431197 0.202537,3.673836 0.0097,5.5625 -0.07929,0.776493 -0.159126,1.384576 -0.165367,1.259515 -0.006,-0.119605 0.05725,-0.860693 0.09144,-1.072015 0.133461,-0.824739 0.134742,-4.524865 0.0019,-5.371371 -0.01785,-0.113714 -0.04837,-0.445816 -0.06781,-0.738004 -0.01945,-0.292187 -0.04289,-0.54361 -0.0521,-0.558718 -0.0092,-0.01511 -0.02892,-0.134638 -0.04381,-0.265625 -0.03637,-0.319913 -0.0733,-0.582908 -0.134008,-0.95441 -0.02786,-0.170502 -0.04602,-0.323925 -0.04035,-0.340939 0.0057,-0.01702 0.148232,0.101393 0.316801,0.263128 0.168569,0.161735 4.6186,4.417344 9.888958,9.456907 l 9.582464,9.162844 3.69531,0.0012 3.69532,0.0012 v 0.21875 0.21875 l -1.28907,-0.0076 c -0.70898,-0.0042 -2.34442,-0.01131 -3.6343,-0.01582 z"
         id="path121"
         transform="matrix(1.7996485,0,0,1.7984423,-6.1035156e-5,-104.03637)" />
      <path
         style="fill:#296201;fill-opacity:1;stroke-width:0.0316875;stroke-dasharray:none"
         d="m 79.922409,77.37405 c 0.03408,-0.06068 0.0629,-0.127476 0.06404,-0.148438 0.0011,-0.02096 0.04984,-0.101393 0.108212,-0.178737 0.05837,-0.07734 0.148029,-0.225295 0.199231,-0.328781 0.0512,-0.103486 0.128427,-0.221349 0.171611,-0.261919 0.04318,-0.04057 0.151363,-0.218896 0.240397,-0.396282 0.08903,-0.177386 0.195145,-0.353771 0.235802,-0.391966 0.04066,-0.0382 0.07495,-0.0916 0.07621,-0.118686 0.0013,-0.02708 0.02834,-0.09143 0.06019,-0.142991 0.06084,-0.0985 0.549468,-1.073111 0.637782,-1.27211 0.04711,-0.106142 0.112244,-0.183007 0.112244,-0.132448 0,0.01155 -0.153246,0.36043 -0.340548,0.775282 -0.371015,0.821756 -0.703244,1.588515 -0.736415,1.699589 -0.02853,0.09555 0.03149,0.09236 0.360164,-0.01913 0.559807,-0.189903 1.572586,-0.633499 3.605564,-1.579235 l 0.779389,-0.36257 1.173736,0.0043 c 0.645555,0.0023 1.138579,0.01048 1.09561,0.01808 -1.69327,0.299614 -3.296763,0.764549 -4.835445,1.402046 -0.661808,0.274197 -1.873473,0.872221 -2.517577,1.242566 -0.288694,0.165992 -0.531032,0.301803 -0.538529,0.301803 -0.0075,0 0.01425,-0.04965 0.04834,-0.110325 z"
         id="path122"
         transform="matrix(1.7996485,0,0,1.7984423,-6.1035156e-5,-104.03637)" />
      <path
         style="fill:#296201;fill-opacity:1;stroke-width:0.0224064;stroke-dasharray:none"
         d="m 61.79248,99.48896 -7.481887,-7.520884 0.145654,-0.01679 c 0.370425,-0.04271 0.563413,-0.05655 0.815545,-0.05847 0.163882,-0.0013 0.291342,-0.01249 0.320407,-0.02826 0.02808,-0.01523 0.182283,-0.03019 0.368674,-0.03576 0.176224,-0.0053 0.340052,-0.01989 0.364061,-0.03251 0.02401,-0.01261 0.15825,-0.03037 0.298311,-0.03947 0.140061,-0.0091 0.299404,-0.02701 0.354094,-0.03979 0.05469,-0.01278 0.18893,-0.02286 0.298311,-0.02239 l 0.198873,8.54e-4 -0.45299,0.09684 c -0.742925,0.158828 -1.246719,0.278123 -1.276107,0.302175 -0.279946,0.229111 1.338711,2.156895 4.693686,5.590073 0.798581,0.817195 8.543809,8.590982 8.559634,8.591192 0.0064,9e-5 0.07104,-1.56846 0.143631,-3.48566 l 0.131991,-3.485809 0.0056,1.927969 c 0.0031,1.06038 0.0031,2.79413 0,3.85277 l -0.0056,1.92479 z"
         id="path123"
         transform="matrix(1.7996485,0,0,1.7984423,-6.1035156e-5,-104.03637)" />
      <path
         style="fill:#296201;fill-opacity:1;stroke-width:0.0224064;stroke-dasharray:none"
         d="m 69.839347,91.426698 c -0.0018,-0.09306 0.104865,-0.738505 0.197135,-1.193243 0.11721,-0.577644 0.234929,-0.997433 0.429651,-1.532144 0.314804,-0.864457 0.449582,-1.33628 0.469705,-1.644312 0.01164,-0.17816 0.0088,-0.204398 -0.02199,-0.204398 -0.01944,0 -0.595146,0.277451 -1.279354,0.616559 -0.684208,0.339108 -1.268874,0.62362 -1.299257,0.63225 -0.09875,0.02805 -0.01924,-0.02838 0.166773,-0.118355 0.09665,-0.04675 0.189379,-0.10147 0.206059,-0.121594 0.01668,-0.02012 0.04778,-0.03659 0.06911,-0.03659 0.02133,0 0.05116,-0.01492 0.06629,-0.03315 0.01513,-0.01823 0.04496,-0.03315 0.06629,-0.03315 0.02133,0 0.05116,-0.01492 0.06629,-0.03315 0.01513,-0.01823 0.04322,-0.03315 0.06242,-0.03315 0.0192,0 0.06522,-0.02912 0.102255,-0.06472 0.03704,-0.0356 0.157478,-0.109417 0.267642,-0.164048 0.110163,-0.05463 0.213304,-0.115001 0.2292,-0.134155 0.0159,-0.01915 0.04461,-0.03483 0.06382,-0.03483 0.0192,0 0.06522,-0.02898 0.102256,-0.06439 0.03704,-0.03542 0.128302,-0.09511 0.202806,-0.132657 0.07451,-0.03755 0.147814,-0.08315 0.16291,-0.101337 0.01509,-0.01819 0.04416,-0.03307 0.0646,-0.03307 0.02043,0 0.07089,-0.0348 0.112115,-0.07734 0.04123,-0.04254 0.08716,-0.07734 0.102076,-0.07734 0.01491,0 0.05666,-0.02486 0.09277,-0.05524 0.03611,-0.03038 0.07596,-0.05524 0.08855,-0.05524 0.03602,0 0.17626,-0.09153 0.279325,-0.182301 0.05175,-0.04557 0.106684,-0.08286 0.122082,-0.08286 0.0154,0 0.06652,-0.0348 0.113602,-0.07734 0.04708,-0.04254 0.09895,-0.07734 0.115263,-0.07734 0.01631,0 0.04766,-0.01989 0.06965,-0.04419 0.022,-0.02431 0.05648,-0.04419 0.07663,-0.04419 0.02015,0 0.06522,-0.02983 0.100147,-0.06629 0.03493,-0.03646 0.07947,-0.06629 0.09897,-0.06629 0.0195,0 0.07937,-0.04475 0.133049,-0.09944 0.05367,-0.05469 0.114189,-0.09944 0.134478,-0.09944 0.02029,0 0.04947,-0.01516 0.06484,-0.03368 0.01537,-0.01852 0.03159,-0.03004 0.03603,-0.0256 0.0044,0.0044 -0.121287,0.265706 -0.279401,0.580583 -0.76127,1.516032 -1.3182,2.999911 -1.724287,4.594172 -0.0712,0.279528 -0.129929,0.483374 -0.130507,0.452991 z"
         id="path124"
         transform="matrix(1.7996485,0,0,1.7984423,-6.1035156e-5,-104.03637)" />
      <path
         style="fill:#296201;fill-opacity:1;stroke-width:0.0224064;stroke-dasharray:none"
         d="m 56.203941,553.20947 c -0.162771,-0.0207 -0.504528,-0.0502 -1.115903,-0.0965 -0.230915,-0.0175 -0.800191,-0.0388 -1.265058,-0.0474 l -0.845214,-0.0157 v -0.33895 -0.33894 l 8.090525,-8.47979 c 4.449788,-4.66389 8.119009,-8.50943 8.153825,-8.54566 l 0.0633,-0.0659 -0.0029,4.50738 -0.0029,4.50738 -0.134554,-4.18188 c -0.074,-2.30003 -0.140724,-4.18187 -0.148264,-4.18187 -0.02211,0 -8.581835,8.99901 -10.141515,10.66197 -3.424684,3.65148 -5.468401,5.93682 -5.403312,6.04213 0.04402,0.0712 1.055092,0.26913 2.762936,0.54082 0.311452,0.0496 0.303621,0.0728 -0.01105,0.0329 z"
         id="path125"
         transform="matrix(1.7996485,0,0,1.7984423,-6.1035156e-5,-104.03637)" />
      <path
         style="fill:#296201;fill-opacity:1;stroke-width:0.0224064;stroke-dasharray:none"
         d=""
         id="path126"
         transform="matrix(1.7996485,0,0,1.7984423,-6.1035156e-5,-104.03637)" />
      <path
         style="fill:#296201;fill-opacity:1;stroke-width:0.0224064;stroke-dasharray:none"
         d="m 71.448599,558.90133 c -0.07771,-0.0554 -0.169508,-0.11776 -0.203985,-0.1386 -0.05866,-0.0355 -0.242728,-0.15585 -0.368207,-0.24085 -0.03038,-0.0206 -0.07513,-0.0546 -0.09944,-0.0757 -0.02431,-0.021 -0.08584,-0.0614 -0.136743,-0.0897 -0.0509,-0.0283 -0.165254,-0.10007 -0.254117,-0.15949 -0.08886,-0.0594 -0.22123,-0.14609 -0.29415,-0.19261 -0.07292,-0.0465 -0.162414,-0.1051 -0.198874,-0.13019 -0.03646,-0.0251 -0.101094,-0.0694 -0.143631,-0.0985 -0.04254,-0.0291 -0.171805,-0.10437 -0.287262,-0.16726 -0.115457,-0.0629 -0.224838,-0.12706 -0.243068,-0.14259 -0.01823,-0.0155 -0.115129,-0.0701 -0.215332,-0.12124 -0.100202,-0.0512 -0.187979,-0.10239 -0.195059,-0.11385 -0.0071,-0.0115 -0.114027,-0.0713 -0.237659,-0.13298 -0.123631,-0.0617 -0.244672,-0.13007 -0.268979,-0.15197 -0.05263,-0.0474 -1.942558,-0.9941 -1.984609,-0.9941 -0.016,0 -0.160528,-0.0646 -0.321185,-0.14363 -0.160657,-0.079 -0.305263,-0.14363 -0.321346,-0.14363 -0.01608,0 -0.122643,-0.0462 -0.236799,-0.10268 -0.193332,-0.0957 -0.328074,-0.15123 -0.606857,-0.25035 -0.123862,-0.044 -0.341663,-0.15255 -0.309441,-0.15418 0.06349,-0.003 1.316488,0.49534 1.901985,0.75673 0.823267,0.36756 1.3646,0.64622 2.12132,1.09201 0.831111,0.48961 1.475839,0.81938 1.854501,0.94856 0.312032,0.10644 0.349979,0.0687 0.291521,-0.29009 -0.04251,-0.2609 -0.190759,-0.79556 -0.31254,-1.12717 -0.234895,-0.63962 -0.306701,-0.92845 -0.417726,-1.68024 -0.06606,-0.44731 -0.167394,-1.29746 -0.165833,-1.39125 6.06e-4,-0.0365 0.05423,0.1681 0.119164,0.45458 0.380104,1.67696 0.908047,3.28035 1.584409,4.81191 0.06083,0.13774 0.106245,0.2548 0.10092,0.26013 -0.0053,0.005 -0.07327,-0.0356 -0.150981,-0.091 z"
         id="path127"
         transform="matrix(1.7996485,0,0,1.7984423,-6.1035156e-5,-104.03637)" />
      <path
         style="fill:#296201;fill-opacity:1;stroke-width:0.0224064;stroke-dasharray:none"
         d="m 87.349785,586.44947 c 0.03646,-0.0352 0.662913,-0.61942 1.392117,-1.29839 5.045701,-4.69811 7.620993,-7.18469 10.365181,-10.0081 l 0.859082,-0.88388 -2.51854,-0.0137 c -2.441105,-0.0132 -3.007893,-0.0271 -4.010092,-0.0979 -2.394686,-0.16913 -4.515668,-0.5739 -6.618078,-1.26301 -0.914713,-0.29982 -1.487489,-0.52132 -2.673748,-1.03397 -1.288783,-0.55696 -1.783854,-0.73951 -2.02359,-0.74615 -0.22741,-0.006 -0.267958,0.0892 -0.162289,0.3821 0.03134,0.0869 0.05285,0.16207 0.04781,0.16711 -0.01234,0.0123 -0.14898,-0.28972 -0.14898,-0.32934 0,-0.0172 -0.01989,-0.0566 -0.04419,-0.0875 -0.02431,-0.0309 -0.04419,-0.0671 -0.04419,-0.0805 0,-0.0421 -0.480076,-0.98577 -0.517131,-1.01652 -0.01941,-0.0161 -0.0353,-0.0376 -0.0353,-0.0476 0,-0.0101 0.116839,0.0541 0.259641,0.1427 3.435423,2.13113 7.308823,3.43018 11.306275,3.79186 1.040052,0.0941 1.104675,0.0957 4.510539,0.10892 l 3.337478,0.013 -6.460957,6.17614 -6.460964,6.17613 -0.213181,0.006 -0.21318,0.006 z"
         id="path128"
         transform="matrix(1.7996485,0,0,1.7984423,-6.1035156e-5,-104.03637)" />
      <path
         style="fill:#296201;fill-opacity:1;stroke-width:0.0224064;stroke-dasharray:none"
         d="m 84.554627,589.47847 c 6.8e-5,-0.009 0.01,-0.052 0.02199,-0.0953 0.02187,-0.0787 0.04068,-0.2224 0.09963,-0.76098 0.01729,-0.15799 0.04279,-0.37178 0.05667,-0.47508 0.01387,-0.10331 0.03175,-0.28229 0.03973,-0.39775 l 0.0145,-0.20992 0.01587,0.16573 c 0.0087,0.0911 0.02238,0.36708 0.03034,0.61319 0.008,0.24611 0.02057,0.44696 0.02801,0.44634 0.0074,-6.2e-4 0.555473,-0.50759 1.217834,-1.1266 l 1.204291,-1.12548 0.209497,-3.5e-4 0.209498,-3.5e-4 -0.06587,0.063 c -1.768679,1.69147 -3.060329,2.92012 -3.06984,2.92012 -0.0068,0 -0.01222,-0.007 -0.01216,-0.0166 z"
         id="path129"
         transform="matrix(1.7996485,0,0,1.7984423,-6.1035156e-5,-104.03637)" />
    </g>
    <g
       inkscape:groupmode="layer"
       id="layer2"
       inkscape:label="cue"
       transform="translate(0,104.0279)"
       style="display:inline">
      <g
         id="g5862"
         transform="matrix(1.1958996,0,0,1.1960748,7.9062602,-192.51478)"
         style="display:inline">
        <circle
           r="5.0507631"
           cy="774.57019"
           cx="34.25486"
           id="path5856"
           style="opacity:1;fill:#ffffff;fill-opacity:1;fill-rule:nonzero;stroke:none;stroke-width:0.313;stroke-linecap:round;stroke-linejoin:round;stroke-miterlimit:4;stroke-dasharray:none;stroke-opacity:1" />
        <circle
           style="opacity:1;fill:#ffffff;fill-opacity:1;fill-rule:nonzero;stroke:none;stroke-width:0.313;stroke-linecap:round;stroke-linejoin:round;stroke-miterlimit:4;stroke-dasharray:none;stroke-opacity:1"
           id="circle5858"
           cx="34.25486"
           cy="557.38739"
           r="5.0507631" />
        <circle
           r="5.0507631"
           cy="340.20459"
           cx="32.234554"
           id="circle5860"
           style="opacity:1;fill:#ffffff;fill-opacity:1;fill-rule:nonzero;stroke:none;stroke-width:0.313;stroke-linecap:round;stroke-linejoin:round;stroke-miterlimit:4;stroke-dasharray:none;stroke-opacity:1" />
      </g>
      <g
         transform="matrix(1.1958996,0,0,1.1960748,1960.5787,-192.51478)"
         id="g5899"
         style="display:inline">
        <circle
           style="opacity:1;fill:#ffffff;fill-opacity:1;fill-rule:nonzero;stroke:none;stroke-width:0.313;stroke-linecap:round;stroke-linejoin:round;stroke-miterlimit:4;stroke-dasharray:none;stroke-opacity:1"
           id="circle5901"
           cx="34.25486"
           cy="774.57019"
           r="5.0507631" />
        <circle
           r="5.0507631"
           cy="557.38739"
           cx="34.25486"
           id="circle5903"
           style="opacity:1;fill:#ffffff;fill-opacity:1;fill-rule:nonzero;stroke:none;stroke-width:0.313;stroke-linecap:round;stroke-linejoin:round;stroke-miterlimit:4;stroke-dasharray:none;stroke-opacity:1" />
        <circle
           style="opacity:1;fill:#ffffff;fill-opacity:1;fill-rule:nonzero;stroke:none;stroke-width:0.313;stroke-linecap:round;stroke-linejoin:round;stroke-miterlimit:4;stroke-dasharray:none;stroke-opacity:1"
           id="circle5905"
           cx="32.234554"
           cy="340.20459"
           r="5.0507631" />
      </g>
      <g
         id="g5936"
         transform="matrix(1.1958996,0,0,1.1960748,5.4715965,-205.01316)"
         style="display:inline">
        <g
           transform="rotate(90,398.66559,1376.8153)"
           id="g5907">
          <circle
             style="opacity:1;fill:#ffffff;fill-opacity:1;fill-rule:nonzero;stroke:none;stroke-width:0.313;stroke-linecap:round;stroke-linejoin:round;stroke-miterlimit:4;stroke-dasharray:none;stroke-opacity:1"
             id="circle5909"
             cx="34.25486"
             cy="774.57019"
             r="5.0507631" />
          <circle
             r="5.0507631"
             cy="557.38739"
             cx="34.25486"
             id="circle5911"
             style="opacity:1;fill:#ffffff;fill-opacity:1;fill-rule:nonzero;stroke:none;stroke-width:0.313;stroke-linecap:round;stroke-linejoin:round;stroke-miterlimit:4;stroke-dasharray:none;stroke-opacity:1" />
          <circle
             style="opacity:1;fill:#ffffff;fill-opacity:1;fill-rule:nonzero;stroke:none;stroke-width:0.313;stroke-linecap:round;stroke-linejoin:round;stroke-miterlimit:4;stroke-dasharray:none;stroke-opacity:1"
             id="circle5913"
             cx="32.234554"
             cy="340.20459"
             r="5.0507631" />
        </g>
        <circle
           transform="rotate(90)"
           style="opacity:1;fill:#ffffff;fill-opacity:1;fill-rule:nonzero;stroke:none;stroke-width:0.313;stroke-linecap:round;stroke-linejoin:round;stroke-miterlimit:4;stroke-dasharray:none;stroke-opacity:1"
           id="circle5917"
           cx="1012.4046"
           cy="-265.51971"
           r="5.0507631" />
        <circle
           transform="rotate(90)"
           r="5.0507631"
           cy="-482.70251"
           cx="1012.4046"
           id="circle5919"
           style="opacity:1;fill:#ffffff;fill-opacity:1;fill-rule:nonzero;stroke:none;stroke-width:0.313;stroke-linecap:round;stroke-linejoin:round;stroke-miterlimit:4;stroke-dasharray:none;stroke-opacity:1" />
        <circle
           transform="rotate(90)"
           style="opacity:1;fill:#ffffff;fill-opacity:1;fill-rule:nonzero;stroke:none;stroke-width:0.313;stroke-linecap:round;stroke-linejoin:round;stroke-miterlimit:4;stroke-dasharray:none;stroke-opacity:1"
           id="circle5921"
           cx="1012.4046"
           cy="-699.88531"
           r="5.0507631" />
      </g>
      <g
         transform="matrix(1.1958996,0,0,1.1960748,-25.280109,-1271.2284)"
         id="g5945"
         style="display:inline">
        <g
           id="g5947"
           transform="rotate(90,398.66559,1376.8153)">
          <circle
             r="5.0507631"
             cy="774.57019"
             cx="34.25486"
             id="circle5949"
             style="opacity:1;fill:#ffffff;fill-opacity:1;fill-rule:nonzero;stroke:none;stroke-width:0.313;stroke-linecap:round;stroke-linejoin:round;stroke-miterlimit:4;stroke-dasharray:none;stroke-opacity:1" />
          <circle
             style="opacity:1;fill:#ffffff;fill-opacity:1;fill-rule:nonzero;stroke:none;stroke-width:0.313;stroke-linecap:round;stroke-linejoin:round;stroke-miterlimit:4;stroke-dasharray:none;stroke-opacity:1"
             id="circle5951"
             cx="34.25486"
             cy="557.38739"
             r="5.0507631" />
          <circle
             r="5.0507631"
             cy="340.20459"
             cx="32.234554"
             id="circle5953"
             style="opacity:1;fill:#ffffff;fill-opacity:1;fill-rule:nonzero;stroke:none;stroke-width:0.313;stroke-linecap:round;stroke-linejoin:round;stroke-miterlimit:4;stroke-dasharray:none;stroke-opacity:1" />
        </g>
        <circle
           r="5.0507631"
           cy="-265.51971"
           cx="1012.4046"
           id="circle5955"
           style="opacity:1;fill:#ffffff;fill-opacity:1;fill-rule:nonzero;stroke:none;stroke-width:0.313;stroke-linecap:round;stroke-linejoin:round;stroke-miterlimit:4;stroke-dasharray:none;stroke-opacity:1"
           transform="rotate(90)" />
        <circle
           style="opacity:1;fill:#ffffff;fill-opacity:1;fill-rule:nonzero;stroke:none;stroke-width:0.313;stroke-linecap:round;stroke-linejoin:round;stroke-miterlimit:4;stroke-dasharray:none;stroke-opacity:1"
           id="circle5957"
           cx="1012.4046"
           cy="-482.70251"
           r="5.0507631"
           transform="rotate(90)" />
        <circle
           r="5.0507631"
           cy="-699.88531"
           cx="1012.4046"
           id="circle5959"
           style="opacity:1;fill:#ffffff;fill-opacity:1;fill-rule:nonzero;stroke:none;stroke-width:0.313;stroke-linecap:round;stroke-linejoin:round;stroke-miterlimit:4;stroke-dasharray:none;stroke-opacity:1"
           transform="rotate(90)" />
      </g>
    </g>
  </g>
</svg>
